<?xml version="1.0" standalone="no"?>
<!DOCTYPE svg PUBLIC "-//W3C//DTD SVG 1.1//EN" "http://www.w3.org/Graphics/SVG/1.1/DTD/svg11.dtd" >
<svg xmlns="http://www.w3.org/2000/svg">
<metadata>Generated by IcoMoon</metadata>
<defs>
<font id="icomoon" horiz-adv-x="1024">
<font-face units-per-em="1024" ascent="960" descent="-64" />
<missing-glyph horiz-adv-x="1024" />
<glyph unicode="&#x20;" horiz-adv-x="512" d="" />
<glyph unicode="&#xe900;" glyph-name="agenda" d="M843.294 839.529v120.471h-783.059v-1024h783.059v120.471h120.471v783.059h-120.471zM120.471-3.765v903.529h120.471v-903.529h-120.471zM783.059-3.765h-481.882v903.529h481.882v-903.529zM903.529 116.706h-60.235v180.706h60.235v-180.706zM903.529 357.647h-60.235v180.706h60.235v-180.706zM843.294 598.588v180.706h60.235v-180.706h-60.235zM361.412 719.059h301.176v-60.235h-301.176v60.235zM361.412 598.588h240.941v-60.235h-240.941v60.235z" />
<glyph unicode="&#xe901;" glyph-name="alarm-clock" d="M886.302 550.942c30.359 30.84 47.345 71.138 47.345 114.628 0 90.534-73.668 164.201-164.141 164.201-53.368 0-102.099-26.142-132.939-69.271-30.178 9.336-61.801 14.999-94.449 17.288v61.741h60.235v60.235h-180.706v-60.235h60.235v-61.741c-32.648-2.289-64.271-7.951-94.449-17.288-30.84 43.189-79.511 69.271-132.939 69.271-90.473 0-164.141-73.668-164.141-164.201 0-43.55 16.986-83.848 47.345-114.628-30.057-57.946-47.345-123.603-47.345-193.295 0-102.822 37.105-197.030 98.485-270.276l-77.402-103.183 48.188-36.141 71.8 95.774c74.632-66.801 172.755-107.821 280.576-107.821s205.944 41.020 280.576 107.821l71.8-95.774 48.188 36.141-77.402 103.183c61.38 73.246 98.485 167.454 98.485 270.276 0 69.692-17.288 135.349-47.345 193.295zM769.506 769.536c57.284 0 103.906-46.622 103.906-103.966 0-22.468-7.228-43.61-20.179-61.259-40.84 56.38-95.232 102.039-158.419 132.638 19.396 20.42 45.899 32.587 74.692 32.587zM150.588 665.57c0 57.284 46.622 103.966 103.906 103.966 28.792 0 55.296-12.168 74.692-32.527-63.187-30.6-117.519-76.318-158.419-132.638-12.951 17.649-20.179 38.731-20.179 61.199zM512-3.765c-199.319 0-361.412 162.093-361.412 361.412s162.093 361.412 361.412 361.412 361.412-162.093 361.412-361.412-162.093-361.412-361.412-361.412zM542.118 357.647h240.941v-60.235h-301.176v240.941h60.235v-180.706z" />
<glyph unicode="&#xe902;" glyph-name="alert" d="M509.229 870.129l-496.459-873.894h998.761l-502.302 873.894zM509.53 748.695l397.854-692.224h-791.13l393.276 692.224zM542.118 301.146h-60.235v237.207h60.235v-237.207zM572.235 175.074c0-33.25-26.925-60.235-60.235-60.235s-60.235 26.985-60.235 60.235 26.925 60.235 60.235 60.235 60.235-26.985 60.235-60.235z" />
<glyph unicode="&#xe903;" glyph-name="align-center" d="M1024 839.529v-60.235h-1024v60.235h1024zM90.353 598.588v-60.235h843.294v60.235h-843.294zM0 297.412h1024v60.235h-1024v-60.235zM210.824 56.471h602.353v60.235h-602.353v-60.235z" />
<glyph unicode="&#xe904;" glyph-name="align-justify" d="M1024 839.529v-60.235h-1024v60.235h1024zM0 538.353h1024v60.235h-1024v-60.235zM0 297.412h1024v60.235h-1024v-60.235zM0 56.471h1024v60.235h-1024v-60.235z" />
<glyph unicode="&#xe905;" glyph-name="align-left" d="M1024 839.529v-60.235h-1024v60.235h1024zM843.294 598.588h-843.294v-60.235h843.294v60.235zM0 297.412h1024v60.235h-1024v-60.235zM0 56.471h602.353v60.235h-602.353v-60.235z" />
<glyph unicode="&#xe906;" glyph-name="align-right" d="M1024 839.529v-60.235h-1024v60.235h1024zM180.706 538.353h843.294v60.235h-843.294v-60.235zM0 297.412h1024v60.235h-1024v-60.235zM421.647 56.471h602.353v60.235h-602.353v-60.235z" />
<glyph unicode="&#xe907;" glyph-name="anchor" d="M921.058 201.517l-94.569 188.356-188.356-94.449 26.985-53.911 112.7 56.561c-22.468-114.869-117.82-202.692-235.701-215.944v456.222h90.353v60.235h-90.353v63.307c68.668 13.975 120.471 74.752 120.471 147.516 0 83.064-67.584 150.588-150.588 150.588s-150.588-67.524-150.588-150.588c0-72.764 51.802-133.542 120.471-147.516v-63.307h-90.353v-60.235h90.353v-456.222c-117.76 13.252-213.112 100.954-235.64 215.642l112.038-56.26 26.985 53.911-188.356 94.449-94.569-188.356 53.85-27.046 39.213 78.185c41.743-135.228 167.876-233.833 316.597-233.833 148.42 0 274.432 98.184 316.356 232.93l38.852-77.282 53.85 27.046zM421.647 809.412c0 49.815 40.538 90.353 90.353 90.353s90.353-40.538 90.353-90.353-40.538-90.353-90.353-90.353-90.353 40.538-90.353 90.353z" />
<glyph unicode="&#xe908;" glyph-name="android" d="M229.436 616.9h565.188v-410.022c0-37.527-30.238-67.765-67.042-67.765h-46.321v-139.746c0-35.117-28.25-63.368-63.307-63.368-35.117 0-63.548 28.311-63.548 63.368v139.746h-84.811v-139.746c0-35.057-28.431-63.368-63.548-63.368-34.394 0-62.765 28.311-62.765 63.368l-0.542 139.746h-45.598c-37.466 0-67.704 30.178-67.704 67.765v410.022zM141.975 628.585c-35.057 0-63.428-28.371-63.428-62.765v-264.794c0-35.117 28.371-63.368 63.428-63.368s62.765 28.311 62.765 63.368v264.794c0 34.394-28.19 62.765-62.765 62.765zM796.431 639.066h-569.464c0 97.882 58.549 182.874 145.348 227.147l-43.791 80.595c-2.47 4.337-1.265 9.879 3.072 12.348 4.277 1.867 9.879 0.663 12.348-3.735l44.273-81.257c37.647 16.685 79.511 25.901 123.784 25.901s86.136-9.216 123.784-25.841l44.273 81.257c2.47 4.337 8.072 5.542 12.348 3.735 4.337-2.47 5.542-8.011 3.072-12.348l-43.791-80.595c86.257-44.333 144.745-129.325 144.745-227.208zM406.046 765.862c0 12.951-10.421 24.034-23.913 24.034-13.011 0-23.432-11.083-23.432-24.034 0-12.89 10.421-23.974 23.432-23.974 13.493-0.060 23.913 11.023 23.913 23.974zM665.299 765.862c0 12.951-10.421 24.034-23.432 24.034-13.553 0-23.913-11.083-23.913-24.034 0-12.89 10.421-23.974 23.913-23.974 13.011-0.060 23.432 11.023 23.432 23.974zM882.025 628.585c-34.515 0-62.765-27.708-62.765-62.765v-264.794c0-35.117 28.25-63.368 62.765-63.368 35.057 0 63.428 28.311 63.428 63.368v264.794c-0.060 35.057-28.371 62.765-63.428 62.765z" />
<glyph unicode="&#xe909;" glyph-name="angle-double-down" d="M512 318.856l-412.853 412.853 42.586 42.586 370.266-370.206 370.206 370.206 42.586-42.586-412.792-412.853zM512 112.248l-370.206 370.266-42.647-42.586 412.853-412.853 412.853 412.853-42.586 42.586-370.266-370.266z" />
<glyph unicode="&#xe90a;" glyph-name="angle-double-left" d="M481.099 448l370.206-370.206-42.586-42.586-412.792 412.792 412.853 412.853 42.586-42.586-370.266-370.266zM559.586 818.266l-42.586 42.586-412.853-412.853 412.853-412.853 42.586 42.586-370.206 370.266 370.206 370.266z" />
<glyph unicode="&#xe90b;" glyph-name="angle-double-right" d="M580.909 448l-412.853-412.853-42.586 42.586 370.206 370.266-370.206 370.206 42.586 42.647 412.853-412.853zM459.836 860.853l-42.586-42.647 370.206-370.206-370.206-370.206 42.586-42.586 412.792 412.792-412.792 412.853z" />
<glyph unicode="&#xe90c;" glyph-name="angle-double-up" d="M512 594.191l412.853-412.853-42.586-42.586-370.266 370.266-370.206-370.206-42.586 42.586 412.792 412.792zM512 800.738l370.206-370.206 42.586 42.586-412.792 412.853-412.853-412.853 42.647-42.586 370.206 370.206z" />
<glyph unicode="&#xe90d;" glyph-name="angle-down" d="M985.088 654.306l-473.148-473.088-473.028 473.088 42.586 42.586 430.381-430.441 430.562 430.502 42.647-42.647z" />
<glyph unicode="&#xe90e;" glyph-name="angle-left" d="M313.645 449.747l430.441-430.502-42.586-42.586-473.028 473.088 473.088 473.028 42.586-42.586-430.502-430.441z" />
<glyph unicode="&#xe90f;" glyph-name="angle-right" d="M795.528 449.687l-473.088-473.088-42.586 42.586 430.441 430.441-430.441 430.562 42.586 42.586 473.088-473.088z" />
<glyph unicode="&#xe910;" glyph-name="angle-up" d="M985.088 243.441l-42.586-42.586-430.502 430.441-430.441-430.441-42.586 42.586 473.028 473.028 473.088-473.028z" />
<glyph unicode="&#xe911;" glyph-name="announcement" d="M992.015 826.157h-116.073c-17.589 0-31.985-14.095-31.985-31.383v-40.177l-662.287-242.748v16.264c0 25.901-21.564 47.044-48.008 47.044h-85.655c-26.443 0-48.008-21.143-48.008-47.044v-282.383c0-25.841 21.564-47.044 48.008-47.044h85.655c26.383 0 48.008 21.203 48.008 47.044v19.938l62.283-11.384c-1.385-9.818-2.289-19.637-2.289-29.576 0-114.266 94.027-207.27 209.559-207.27 99.81 0 182.513 67.945 203.595 161.551l189.139-34.696v-39.695c0-17.288 14.396-31.383 31.985-31.383h116.073c17.589 0 31.985 14.095 31.985 31.383v690.176c0 17.288-14.396 31.383-31.985 31.383zM451.223 77.673c-82.342 0-149.323 65.958-149.323 147.034 0 6.264 1.626 12.348 2.409 18.552l291.539-53.489c-15.902-65.175-74.391-112.098-144.625-112.098zM963.765 133.451h-59.573v61.018l-782.758 143.541v-79.029h-61.199v256h61.199v-89.389l782.758 286.901v53.429h59.573v-632.471z" />
<glyph unicode="&#xe912;" glyph-name="apple" d="M843.354 289.882c-28.25 40.599-42.406 86.739-42.406 137.216 0 46.743 13.553 89.269 39.996 127.398 14.758 21.504 38.129 45.538 70.174 72.584-20.902 25.901-42.526 46.803-64.030 61.56-38.189 26.443-81.8 39.996-131.072 39.996-30.178 0-65.837-7.409-106.436-20.902-40.659-14.155-70.174-20.962-88.004-20.962-14.216 0-42.526 6.144-84.992 18.492-43.068 12.288-78.788 18.432-108.905 18.432-70.837 0-128.663-29.576-174.743-88.606-46.14-59.693-69.512-136.011-69.512-230.159 0-100.894 30.78-203.656 90.413-309.549 60.898-105.833 121.856-159.383 185.224-159.383 20.299 0 47.405 6.746 81.257 20.962 33.31 13.493 62.765 20.299 87.401 20.299 25.239 0 56.561-6.144 92.883-19.697 36.984-12.89 65.235-19.697 86.197-19.697 52.284 0 105.231 40.056 158.178 120.651 35.659 53.549 60.296 105.231 75.656 153.841-36.262 11.023-68.909 36.864-97.28 77.523zM814.562 91.528c-39.575-60.235-77.884-93.485-107.821-93.485-8.855 0-27.648 2.831-65.114 15.902-41.743 15.601-80.113 23.492-113.965 23.492-32.587 0-69.572-8.312-110.712-24.998-34.936-14.637-52.104-16.203-57.886-16.203-37.828 0-85.052 45.899-132.759 128.723-55.597 98.726-82.643 190.283-82.643 279.974 0 80.474 18.673 143.782 56.742 193.114 34.876 44.634 75.354 65.416 127.277 65.416 24.154 0 54.332-5.301 92.1-16.083 63.307-18.372 86.98-20.841 101.737-20.841 25.6 0 60.838 7.951 107.038 24.034 35.479 11.806 64.873 17.83 87.341 17.83 36.683 0 68.367-9.577 96.979-29.455 3.976-2.771 8.132-5.903 12.288-9.336-13.734-14.216-24.937-27.768-33.852-40.779-33.732-48.55-50.778-102.942-50.778-161.792 0-63.127 17.89-120.832 53.248-171.671 21.323-30.419 45.056-54.694 71.198-72.644-13.071-30.057-29.997-60.597-50.417-91.196zM567.657 721.227c-14.155-4.337-35.057-8.011-63.97-10.481 1.265 60.898 17.227 113.845 48.008 158.118 30.78 44.393 82.402 74.511 153.901 91.136 1.205-5.542 2.409-9.879 3.012-13.553 0-4.277 0.663-7.951 0.663-12.288 0-25.239-6.144-53.549-17.83-83.727-12.288-30.78-31.383-59.091-57.284-84.932-22.167-22.106-44.333-36.864-66.5-44.273z" />
<glyph unicode="&#xe913;" glyph-name="archive" d="M1024 839.529h-1024v-240.941h60.235v-662.588h903.529v662.588h60.235v240.941zM903.529-3.765h-783.059v602.353h783.059v-602.353zM963.765 658.824h-903.529v120.471h903.529v-120.471zM361.412 297.412h302.14c66.44 0 120.471 54.031 120.471 120.471s-54.031 120.471-120.471 120.471h-302.14c-66.44 0-120.471-54.031-120.471-120.471s54.031-120.471 120.471-120.471zM361.412 478.118h302.14c33.25 0 60.235-26.985 60.235-60.235s-26.985-60.235-60.235-60.235h-302.14c-33.25 0-60.235 26.985-60.235 60.235s26.985 60.235 60.235 60.235z" />
<glyph unicode="&#xe914;" glyph-name="arrow" d="M819.381 276.39l-42.526 42.647 99.027 98.846h-333.764v-333.764l98.846 99.027 42.647-42.526-171.61-171.972-171.61 171.972 42.647 42.526 98.846-99.027v333.764h-333.764l99.027-98.846-42.526-42.647-171.972 171.61 171.972 171.61 42.526-42.647-99.027-98.846h333.764v333.764l-98.846-99.027-42.647 42.526 171.61 171.972 171.61-171.972-42.647-42.526-98.846 99.027v-333.764h333.764l-99.027 98.846 42.526 42.647 171.972-171.61-171.972-171.61z" />
<glyph unicode="&#xe915;" glyph-name="arrow-circle-down" d="M731.618 589.794l42.586-42.586-262.204-262.264-262.264 262.204 42.586 42.586 219.678-219.618 219.618 219.678zM1024 448c0-282.323-229.677-512-512-512s-512 229.677-512 512 229.677 512 512 512 512-229.677 512-512zM963.765 448c0 249.133-202.632 451.765-451.765 451.765s-451.765-202.632-451.765-451.765 202.632-451.765 451.765-451.765 451.765 202.632 451.765 451.765z" />
<glyph unicode="&#xe916;" glyph-name="arrow-circle-left" d="M653.794 667.618l-219.678-219.618 219.618-219.618-42.586-42.586-262.204 262.204 262.264 262.264 42.586-42.647zM1024 448c0-282.323-229.677-512-512-512s-512 229.677-512 512 229.677 512 512 512 512-229.677 512-512zM963.765 448c0 249.133-202.632 451.765-451.765 451.765s-451.765-202.632-451.765-451.765 202.632-451.765 451.765-451.765 451.765 202.632 451.765 451.765z" />
<glyph unicode="&#xe917;" glyph-name="arrow-circle-right" d="M412.853 710.264l262.204-262.264-262.264-262.264-42.586 42.586 219.678 219.678-219.678 219.618 42.647 42.647zM1024 448c0-282.323-229.677-512-512-512s-512 229.677-512 512 229.677 512 512 512 512-229.677 512-512zM963.765 448c0 249.133-202.632 451.765-451.765 451.765s-451.765-202.632-451.765-451.765 202.632-451.765 451.765-451.765 451.765 202.632 451.765 451.765z" />
<glyph unicode="&#xe918;" glyph-name="arrow-circle-up" d="M512 611.057l262.264-262.264-42.586-42.586-219.678 219.678-219.618-219.618-42.586 42.586 262.204 262.204zM1024 448c0-282.323-229.677-512-512-512s-512 229.677-512 512 229.677 512 512 512 512-229.677 512-512zM963.765 448c0 249.133-202.632 451.765-451.765 451.765s-451.765-202.632-451.765-451.765 202.632-451.765 451.765-451.765 451.765 202.632 451.765 451.765z" />
<glyph unicode="&#xe919;" glyph-name="arrow-down1" d="M954.97 426.677l-442.97-442.91-442.97 442.91 42.586 42.586 370.266-370.206v800.708h60.235v-800.708l370.206 370.206 42.647-42.586z" />
<glyph unicode="&#xe91a;" glyph-name="arrow-left1" d="M963.765 419.569h-770.59l370.206-370.206-42.586-42.586-442.91 442.91 442.97 442.97 42.586-42.586-370.266-370.266h770.59v-60.235z" />
<glyph unicode="&#xe91b;" glyph-name="arrow-right1" d="M946.116 449.687l-442.97-442.97-42.586 42.586 370.206 370.206h-770.53v60.235h770.59l-370.266 370.327 42.586 42.586 442.97-442.97z" />
<glyph unicode="&#xe91c;" glyph-name="arrows-corner" d="M903.529 387.765v-331.294h-331.294v60.235h229.075l-620.604 620.604v-229.075h-60.235v331.294h331.294v-60.235h-227.87l619.4-619.4v227.87h60.235z" />
<glyph unicode="&#xe91d;" glyph-name="arrows-horizontal" d="M1006.893 448l-238.17-232.388-42.044 43.128 163.057 159.142h-755.471l163.117-159.142-42.044-43.128-238.231 232.388 238.17 232.388 42.044-43.128-163.057-159.142h755.531l-163.117 159.142 42.044 43.128 238.17-232.388z" />
<glyph unicode="&#xe91e;" glyph-name="arrows-vertical" d="M701.259 233.382l43.128-42.044-232.388-238.231-232.388 238.17 43.128 42.044 159.142-163.057v755.471l-159.142-163.117-43.128 42.104 232.388 238.17 232.388-238.17-43.128-42.044-159.142 163.057v-755.531l159.142 163.177z" />
<glyph unicode="&#xe91f;" glyph-name="arrow-top-left" d="M740.412 176.941l-621.448 620.243v-439.537h-60.235v542.298h543.624v-60.235h-440.681l621.327-620.122-42.586-42.647z" />
<glyph unicode="&#xe920;" glyph-name="arrow-top-right" d="M963.765 899.945v-542.298h-60.235v439.537l-621.448-620.243-42.586 42.647 621.327 620.122h-440.681v60.235h543.624z" />
<glyph unicode="&#xe921;" glyph-name="arrow-up1" d="M912.324 426.677l-370.206 370.266v-800.708h-60.235v800.708l-370.206-370.266-42.647 42.647 442.97 442.91 442.97-442.97-42.647-42.586z" />
<glyph unicode="&#xe922;" glyph-name="back-left" d="M903.529 508.235c0-182.694-148.6-331.294-331.294-331.294h-175.405l159.383-159.383-42.586-42.586-232.087 232.087 232.147 232.147 42.586-42.586-159.443-159.443h175.405c149.444 0 271.059 121.615 271.059 271.059s-121.615 271.059-271.059 271.059h-426.647v60.235h426.647c182.694 0 331.294-148.6 331.294-331.294z" />
<glyph unicode="&#xe923;" glyph-name="back-right" d="M878.411 56.471v-60.235h-426.647c-182.633 0-331.294 148.6-331.294 331.294s148.661 331.294 331.294 331.294h175.405l-159.383 159.383 42.586 42.586 232.087-232.087-232.087-232.147-42.586 42.647 159.383 159.383h-175.405c-149.444 0-271.059-121.615-271.059-271.059s121.615-271.059 271.059-271.059h426.647z" />
<glyph unicode="&#xe924;" glyph-name="bag" d="M783.059 719.059v144.203c0 53.308-44.393 96.738-98.967 96.738h-343.281c-54.513 0-98.906-43.43-98.906-96.738v-144.203h-181.67v-783.059h903.529v783.059h-180.706zM302.14 863.262c0 20.119 17.348 36.503 38.671 36.503h343.281c21.384 0 38.731-16.384 38.731-36.503v-144.203h-420.683v144.203zM903.529-3.765h-783.059v481.882h783.059v-481.882zM903.529 538.353h-783.059v120.471h121.434v-38.731h60.235v38.731h420.683v-38.731h60.235v38.731h120.471v-120.471z" />
<glyph unicode="&#xe925;" glyph-name="bar-chart" d="M1024-3.765v-60.235h-1024v60.235h1024zM120.471 357.647h120.471v-301.176h60.235v361.412h-240.941v-361.412h60.235v301.176zM421.647 538.353h120.471v-481.882h60.235v542.118h-240.941v-542.118h60.235v481.882zM722.824 779.294h120.471v-722.824h60.235v783.059h-240.941v-783.059h60.235v722.824z" />
<glyph unicode="&#xe926;" glyph-name="bar-chart-alt" d="M1024-3.765v-60.235h-1024v60.235h1024zM722.824 357.647h120.471v-301.176h60.235v361.412h-240.941v-361.412h60.235v301.176zM421.647 538.353h120.471v-481.882h60.235v542.118h-240.941v-542.118h60.235v481.882zM120.471 779.294h120.471v-722.824h60.235v783.059h-240.941v-783.059h60.235v722.824z" />
<glyph unicode="&#xe927;" glyph-name="basketball" d="M512.964 960c-282.323 0-512-229.677-512-512s229.677-512 512-512 512 229.677 512 512-229.737 512-512 512zM782.396 478.118c5.903 87.944 37.045 171.972 90.172 242.146 51.802-68.247 84.57-151.492 90.594-242.146h-180.766zM963.162 417.882c-6.024-90.654-38.792-173.96-90.654-242.206-53.067 70.234-84.209 154.263-90.052 242.206h180.706zM832.813 766.705c-65.897-82.583-104.388-183.115-110.652-288.587h-180.043v420.201c113.182-7.349 215.281-55.959 290.696-131.614zM481.882 898.199v-420.081h-178.296c-6.144 105.532-44.634 206.005-110.472 288.587 74.933 75.234 176.309 123.784 288.768 131.494zM62.705 478.118c6.024 90.654 38.792 173.96 90.654 242.206 53.067-70.174 84.149-154.202 90.052-242.206h-180.706zM243.351 417.882c-5.843-88.064-36.864-172.032-89.992-242.206-51.863 68.247-84.631 151.552-90.654 242.206h180.646zM193.054 129.295c65.958 82.583 104.388 183.055 110.532 288.587h178.296v-420.081c-112.459 7.71-213.835 56.26-288.828 131.494zM542.118-2.319v420.201h180.104c6.204-105.472 44.695-206.005 110.532-288.648-75.415-75.595-177.453-124.205-290.635-131.554z" />
<glyph unicode="&#xe928;" glyph-name="bell" d="M922.323 109.176c-0.843 0.783-79.029 77.944-79.029 193.355v198.295c0 186.79-148.661 338.703-331.294 338.703s-331.294-151.913-331.294-338.703v-198.295c0-112.098-78.667-192.934-79.39-193.717l-50.778-51.381h925.033l-53.248 51.742zM183.838 117.67c26.744 41.683 57.103 106.255 57.103 184.862v198.295c0 153.54 121.615 278.468 271.059 278.468s271.059-124.928 271.059-278.468v-198.295c0-79.511 29.816-143.541 56.501-184.862h-655.721zM542.118 839.529h-60.235v60.235h60.235v-60.235zM542.118 56.471h60.235c0-49.815-40.538-90.353-90.353-90.353s-90.353 40.538-90.353 90.353h60.235c0-16.625 13.553-30.118 30.118-30.118s30.118 13.493 30.118 30.118z" />
<glyph unicode="&#xe929;" glyph-name="blackboard" d="M542.118 839.529v120.471h-60.235v-120.471h-421.647v-602.353h903.529v602.353h-421.647zM903.529 297.412h-783.059v481.882h783.059v-481.882zM210.824 176.941h602.353v-60.235h-155.648l90.594-140.107-50.598-32.708-111.736 172.815h-43.671v-180.706h-60.235v180.706h-42.888l-112.58-172.875-50.477 32.828 91.196 140.047h-156.311v60.235z" />
<glyph unicode="&#xe92a;" glyph-name="bolt" d="M862.148 838.807h-430.803l-140.408-422.49h100.352l-121.073-364.544 571.211 484.954h-174.923l195.644 302.080zM677.466 476.491l-282.323-239.676 79.631 239.676h-100.292l100.292 302.080h276.6l-195.644-302.080h121.736z" />
<glyph unicode="&#xe92b;" glyph-name="bolt-alt" d="M712.584 478.118l-230.46-435.682-53.248 28.13 183.718 347.317h-307.742l295.153 438.453 49.935-33.672-231.966-344.546h294.611z" />
<glyph unicode="&#xe92c;" glyph-name="book1" d="M999.424 890.609c-3.192 0.602-79.571 14.697-179.561 14.697-126.795 0-230.581-22.046-308.706-65.536-91.437 46.080-196.608 69.391-312.983 69.391-101.256 0-172.634-18.191-175.586-18.974l-22.588-5.903 0.060-837.632 37.587 9.698c0.663 0.12 67.464 17.047 160.527 17.047 87.16 0 166.912-14.456 238.532-42.345v-49.875h150.588v51.561c77.161 29.395 165.466 36.804 232.508 36.804 94.088 0 167.816-13.553 168.538-13.673l35.659-6.626v836.728l-24.576 4.638zM60.235 122.308v714.27c27.166 5.060 76.92 12.348 137.939 12.348 106.074 0 201.126-21.685 283.708-62.886v-709.331c-84.51 37.165-179.32 56.922-283.708 56.922-58.368 0-106.797-6.084-137.939-11.324zM963.765 120.44c-32.286 4.216-83.908 9.276-143.962 9.276-111.315 0-203.656-17.95-277.685-51.501v709.15c85.655 46.984 197.030 57.705 277.685 57.705 61.621 0 114.568-5.843 143.962-9.879v-714.752z" />
<glyph unicode="&#xe92d;" glyph-name="bookmark1" d="M214.558 899.765v-931.177l282.263 196.969 286.238-196.367v930.575h-568.501zM722.824 83.516l-226.244 155.287-221.726-154.684v755.411h447.97v-756.013z" />
<glyph unicode="&#xe92e;" glyph-name="bookmark-alt" d="M603.979 353.19v606.81h-364.664v-606.991l181.971 123.663 182.694-123.482zM299.55 466.793v432.971h244.254v-433.152l-122.699 82.884-121.555-82.703zM963.765 899.343v-903.108h-903.529v903.108h118.904v-60.235h-58.669v-782.637h783.059v782.637h-241.242v60.235h301.478z" />
<glyph unicode="&#xe92f;" glyph-name="briefcase1" d="M421.647 176.941v90.353h60.235v-30.118h60.235v30.118h60.235v-90.353h-180.706zM1024 297.412h-60.235v-361.412h-903.529v361.412h-60.235v481.882h217.811c56.501 110.231 168.96 180.706 294.189 180.706s237.749-70.536 294.189-180.706h217.811v-481.882zM287.262 779.294h449.596c-49.694 74.27-133.12 120.471-224.798 120.471s-175.104-46.261-224.798-120.471zM903.529 297.412h-783.059v-301.176h783.059v301.176zM963.765 719.059h-903.529v-361.412h903.529v361.412z" />
<glyph unicode="&#xe930;" glyph-name="brush" d="M958.524 852.661l-391.529-572.235-49.694 33.973 391.529 572.235 49.694-33.973zM542.118 117.188c0-66.44-54.031-120.471-120.471-120.471-12.228 0-32.407-0.904-32.587-0.904h-328.523l274.251 206.667c9.035 6.264 51.742 35.177 86.859 35.177 66.44 0 120.471-54.031 120.471-120.471zM481.882 117.188c0 33.19-27.046 60.235-60.235 60.235-10.541 0-35.057-12.228-51.381-23.672l-129.687-97.762h146.552c3.795 0.181 22.648 0.964 34.515 0.964 33.19 0 60.235 27.046 60.235 60.235z" />
<glyph unicode="&#xe931;" glyph-name="brush-alt" d="M1024 506.368c0 49.815-40.538 90.353-90.353 90.353h-289.611l17.167 55.055 1.385 217.871c0 49.815-40.538 90.353-90.353 90.353h-120.471c-49.815 0-90.353-40.538-90.353-90.353v-207.932l18.673-65.054h-289.732c-49.815 0-90.353-40.538-90.353-90.353v-209.98h56.139l-46.14-360.328h1004.002l-46.14 360.328h56.139v210.040zM945.574-3.765h-102.28v120.471h-60.235v-120.471h-60.235v180.706h-60.235v-180.706h-60.235v240.941h-60.235v-240.941h-301.176v120.471h-60.235v-120.471h-102.28l38.43 300.092h790.287l38.43-300.092zM63.849 356.563h-3.614v149.805c0 16.625 13.493 30.118 30.118 30.118h371.351l-40.056 129.807v203.354c0 16.625 13.493 30.118 30.118 30.118h120.471c16.625 0 30.118-13.493 30.118-30.118v-204.378l-40.177-128.783h371.471c16.625 0 30.118-13.493 30.118-30.118v-149.745h-899.915zM481.882 839.529h60.235v-60.235h-60.235v60.235z" />
<glyph unicode="&#xe932;" glyph-name="calendar" d="M843.294 839.529v60.235h-180.706v-60.235h-301.176v60.235h-180.706v-60.235h-180.706v-903.529h1024v903.529h-180.706zM722.824 839.529h60.235v-120.471h-60.235v120.471zM240.941 839.529h60.235v-120.471h-60.235v120.471zM963.765-3.765h-903.529v537.359h903.529v-537.359zM60.235 593.83v185.464h120.471v-120.471h180.706v120.471h301.176v-120.471h180.706v120.471h120.471v-185.464h-903.529z" />
<glyph unicode="&#xe933;" glyph-name="camera1" d="M358.882 779.294v60.235h-175.646v-60.235h-183.236v-722.824h1024v722.824h-665.118zM963.765 116.706h-903.529v421.647h394.963c-20.781-35.599-33.551-76.439-33.551-120.471 0-132.879 108.062-240.941 240.941-240.941s240.941 108.062 240.941 240.941c0 44.032-12.77 84.872-33.551 120.471h93.786v-421.647zM843.294 417.882c0-99.629-81.077-180.706-180.706-180.706s-180.706 81.077-180.706 180.706 81.077 180.706 180.706 180.706 180.706-81.077 180.706-180.706zM820.284 598.588c-42.406 36.984-97.099 60.235-157.696 60.235s-115.29-23.251-157.696-60.235h-444.657v120.471h903.529v-120.471h-143.48z" />
<glyph unicode="&#xe934;" glyph-name="car1" d="M1024 358.611l-117.941-0.12-123.543 240.098h-478.81l-178.778-240.881-124.928-0.060v-299.791h120.591c0-0.482-0.12-0.904-0.12-1.385 0-66.44 54.031-120.471 120.471-120.471s120.471 54.031 120.471 120.471c0 0.482-0.12 0.904-0.12 1.385h301.478c-0.060-0.482-0.181-0.904-0.181-1.385 0-66.44 54.031-120.471 120.471-120.471s120.471 54.031 120.471 120.471c0 0.482-0.12 0.904-0.12 1.385h120.591v300.755zM838.355 358.43l-234.737-0.241v180.164h142.155l92.582-179.923zM333.944 538.353h209.438v-180.224l-343.401-0.301 133.963 180.525zM240.941-3.765c-33.19 0-60.235 27.046-60.235 60.235s27.046 60.235 60.235 60.235 60.235-27.046 60.235-60.235-27.046-60.235-60.235-60.235zM783.059-3.765c-33.19 0-60.235 27.046-60.235 60.235s27.046 60.235 60.235 60.235 60.235-27.046 60.235-60.235-27.046-60.235-60.235-60.235zM963.765 118.091h-77.764c-21.082 35.057-59.091 58.85-102.942 58.85s-81.86-23.793-102.942-58.85h-336.233c-21.082 35.057-59.091 58.85-102.942 58.85s-81.86-23.793-102.942-58.85h-77.764v179.32l903.529 0.904v-180.224z" />
<glyph unicode="&#xe935;" glyph-name="check" d="M928.708 853.143l-532.058-812.273-296.237 264.192 40.117 44.936 244.013-217.69 493.809 753.845 50.357-33.009z" />
<glyph unicode="&#xe936;" glyph-name="check-box" d="M843.294 612.984h60.235v-616.749h-843.294v843.294h505.555v-60.235h-445.32v-722.824h722.824v556.514zM292.382 469.323l-42.647-42.647 206.848-206.848 457.005 693.429-50.296 33.19-416.346-631.748-154.564 154.624z" />
<glyph unicode="&#xe937;" glyph-name="clip" d="M724.088 704.964v-511.88h-60.235v511.88c0 65.717-48.128 136.493-153.841 136.493-116.917 0-148.119-85.775-148.119-136.493v-489.171h0.422v-87.763c0-37.346 41.743-72.644 85.896-72.644 50.839 0 94.389 41.141 94.389 74.752v16.264h-0.181l0.482 458.812c0 52.646-14.878 52.646-28.070 52.646-22.227 0-32.949-2.108-32.949-49.574v-309.971h-60.235v309.971c0 27.166 0 109.809 93.184 109.809 40.297 0 88.305-19.576 88.305-112.941l-0.422-387.313h0.12v-87.763c0-70.656-73.728-134.987-154.624-134.987-77.824 0-146.131 62.103-146.131 132.879v4.457h-0.422v572.536c0 94.75 65.175 196.728 208.354 196.728 140.529-0.060 214.076-98.967 214.076-196.728z" />
<glyph unicode="&#xe938;" glyph-name="clipboard" d="M963.765 839.529v-903.529h-903.529v903.529h135.168v-60.235h-74.933v-783.059h783.059v783.059h-76.981v60.235h137.216zM783.059 658.824h-542.118v240.941h185.826c12.469 35.057 45.96 60.235 85.233 60.235s72.764-25.178 85.233-60.235h185.826v-240.941zM722.824 839.529h-180.706v30.118c0 16.625-13.493 30.118-30.118 30.118s-30.118-13.493-30.118-30.118v-30.118h-180.706v-120.471h421.647v120.471z" />
<glyph unicode="&#xe939;" glyph-name="close" d="M554.586 448l400.324-400.324-42.586-42.586-400.324 400.324-400.324-400.324-42.586 42.586 400.324 400.324-400.384 400.324 42.586 42.586 400.384-400.324 400.324 400.324 42.586-42.586-400.324-400.324z" />
<glyph unicode="&#xe93a;" glyph-name="cloud1" d="M768 688.941c-34.816 0-69.030-7.409-101.858-22.106-53.549 52.585-124.988 82.342-199.319 82.342-118.423 0-221.907-71.68-264.855-180.826-108.604 4.457-201.969-85.594-201.969-195.644 0-107.942 87.823-195.765 195.765-195.765h572.235c141.131 0 256 114.869 256 256s-114.869 256-256 256zM768 237.176h-572.235c-74.752 0-135.529 60.777-135.529 135.529s60.777 135.529 135.529 135.529c7.529 0 14.697-1.144 21.865-2.289l26.202-4.337 7.59 25.419c28.792 96.858 115.351 161.912 215.401 161.912 64.632 0 126.615-28.732 169.924-78.728l15.962-18.432 21.323 11.746c30.298 16.685 61.862 25.178 93.967 25.178 107.942 0 195.765-87.823 195.765-195.765s-87.823-195.765-195.765-195.765z" />
<glyph unicode="&#xe93b;" glyph-name="cloud-down" d="M1024 553.412c0-141.131-114.808-256-256-256h-166.069v60.235h166.069c107.942 0 195.765 87.823 195.765 195.765s-87.823 195.765-195.765 195.765c-32.045 0-63.669-8.493-93.967-25.118l-21.323-11.746-15.962 18.432c-43.309 49.935-105.291 78.667-169.924 78.667-100.051 0-186.669-65.054-215.401-161.912l-7.59-25.419-26.202 4.337c-7.168 1.144-14.336 2.289-21.865 2.289-74.692 0-135.529-60.777-135.529-135.529s60.838-135.529 135.529-135.529h222.81v-60.235h-222.81c-107.942 0-195.765 87.823-195.765 195.765 0 109.99 91.016 200.885 201.969 195.644 42.948 109.146 146.432 180.826 264.855 180.826 74.33 0 145.769-29.756 199.319-82.342 32.888 14.697 67.042 22.106 101.858 22.106 141.192 0 256-114.869 256-256zM542.118 132.969v465.619h-60.235v-465.619l-99.147 99.147-42.586-42.586 171.851-171.851 171.912 171.912-42.586 42.586-99.208-99.208z" />
<glyph unicode="&#xe93c;" glyph-name="cloud-up" d="M1024 553.412c0-141.131-114.808-256-256-256h-166.069v60.235h166.069c107.942 0 195.765 87.823 195.765 195.765s-87.823 195.765-195.765 195.765c-32.045 0-63.669-8.493-93.967-25.118l-21.323-11.746-15.962 18.432c-43.309 49.935-105.291 78.667-169.924 78.667-100.051 0-186.669-65.054-215.401-161.912l-7.59-25.419-26.202 4.337c-7.168 1.144-14.336 2.289-21.865 2.289-74.692 0-135.529-60.777-135.529-135.529s60.838-135.529 135.529-135.529h222.81v-60.235h-222.81c-107.942 0-195.765 87.823-195.765 195.765 0 109.99 92.1 200.885 201.969 195.644 42.948 109.146 146.432 180.826 264.855 180.826 74.33 0 145.769-29.756 199.319-82.342 32.888 14.697 67.042 22.106 101.858 22.106 141.192 0 256-114.869 256-256zM641.265 426.677l42.586 42.586-171.851 171.912-171.912-171.851 42.586-42.586 99.208 99.147v-469.414h60.235v469.414l99.147-99.208z" />
<glyph unicode="&#xe93d;" glyph-name="comment" d="M933.647 960h-843.294c-49.815 0-90.353-40.538-90.353-90.353v-602.353c0-49.815 40.538-90.353 90.353-90.353h30.118v-247.085l282.383 247.085h530.793c49.815 0 90.353 40.538 90.353 90.353v602.353c0 49.815-40.538 90.353-90.353 90.353zM963.765 267.294c0-16.565-13.493-30.118-30.118-30.118h-553.442l-199.499-174.562v174.562h-90.353c-16.625 0-30.118 13.553-30.118 30.118v602.353c0 16.565 13.493 30.118 30.118 30.118h843.294c16.625 0 30.118-13.553 30.118-30.118v-602.353z" />
<glyph unicode="&#xe93e;" glyph-name="comment-alt" d="M933.647 960h-843.294c-49.815 0-90.353-40.538-90.353-90.353v-602.353c0-49.815 40.538-90.353 90.353-90.353h30.118v-247.085l282.383 247.085h530.793c49.815 0 90.353 40.538 90.353 90.353v602.353c0 49.815-40.538 90.353-90.353 90.353zM963.765 267.294c0-16.565-13.493-30.118-30.118-30.118h-553.442l-199.499-174.562v174.562h-90.353c-16.625 0-30.118 13.553-30.118 30.118v602.353c0 16.565 13.493 30.118 30.118 30.118h843.294c16.625 0 30.118-13.553 30.118-30.118v-602.353zM180.706 779.294h662.588v-60.235h-662.588v60.235zM180.706 658.824h662.588v-60.235h-662.588v60.235zM180.706 538.353h361.412v-60.235h-361.412v60.235z" />
<glyph unicode="&#xe93f;" glyph-name="comments" d="M1024 869.647v-480.015c0-49.815-40.538-90.353-90.353-90.353h-30.6v60.235h30.6c16.625 0 30.118 13.553 30.118 30.118v480.015c0 16.565-13.493 30.118-30.118 30.118h-843.294c-16.625 0-30.118-13.553-30.118-30.118v-480.015c0-16.565 13.493-30.118 30.118-30.118h90.353v-174.2l107.159 94.509 39.816-45.176-207.209-182.814v247.447h-30.118c-49.815 0-90.353 40.538-90.353 90.353v480.015c0 49.815 40.538 90.353 90.353 90.353h843.294c49.815 0 90.353-40.538 90.353-90.353zM844.499 385.355v-183.296c0-49.815-40.538-90.353-90.353-90.353h-30.118v-184.561l-220.883 184.561h-51.381c-49.815 0-90.353 40.538-90.353 90.353v183.296c0 49.815 40.538 90.353 90.353 90.353h302.381c49.815 0 90.353-40.538 90.353-90.353zM784.264 385.355c0 16.565-13.493 30.118-30.118 30.118h-302.381c-16.625 0-30.118-13.553-30.118-30.118v-183.296c0-16.565 13.493-30.118 30.118-30.118h73.306l138.722-116.013v116.013h90.353c16.625 0 30.118 13.553 30.118 30.118v183.296z" />
<glyph unicode="&#xe940;" glyph-name="comments-smiley" d="M783.059 478.118h60.235c0-149.444-121.615-271.059-271.059-271.059s-271.059 121.615-271.059 271.059h60.235c0-116.254 94.569-210.824 210.824-210.824s210.824 94.569 210.824 210.824zM451.765 568.471c33.31 0 60.235 26.925 60.235 60.235s-26.925 60.235-60.235 60.235-60.235-26.925-60.235-60.235 26.925-60.235 60.235-60.235zM692.706 568.471c33.31 0 60.235 26.925 60.235 60.235s-26.925 60.235-60.235 60.235-60.235-26.925-60.235-60.235 26.925-60.235 60.235-60.235zM1024 508.235c0-249.133-202.632-451.765-451.765-451.765-80.715 0-159.503 21.624-229.075 62.705l-331.294-171.249 171.249 331.234c-41.020 69.572-62.645 148.36-62.645 229.075 0 249.133 202.632 451.765 451.765 451.765s451.765-202.632 451.765-451.765zM963.765 508.235c0 215.883-175.646 391.529-391.529 391.529s-391.529-175.646-391.529-391.529c0-74.933 21.564-148.119 62.404-211.486l9.457-14.637-100.232-193.837 193.777 100.232 14.637-9.457c63.428-40.779 136.493-62.344 211.486-62.344 215.883 0 391.529 175.646 391.529 391.529z" />
<glyph unicode="&#xe941;" glyph-name="control-backward" d="M404.721 449.566l438.573-367.255v730.955l-438.573-363.701zM783.059 211.336l-284.25 237.99 284.25 235.761v-473.751zM197.632 449.325l333.704-279.432-38.731-46.261-389.12 325.873 389.24 322.741 38.49-46.381-333.583-276.54z" />
<glyph unicode="&#xe942;" glyph-name="control-eject" d="M510.434 796.22l-363.701-438.573h730.955l-367.255 438.573zM510.675 702.133l237.99-284.25h-473.751l235.761 284.25zM903.529 176.941v-60.235h-783.059v60.235h783.059z" />
<glyph unicode="&#xe943;" glyph-name="control-forward" d="M180.706 813.267v-731.016l438.573 367.315-438.573 363.701zM240.941 685.086l284.25-235.701-284.25-238.050v473.751zM920.456 449.566l-389.12-325.873-38.731 46.261 333.704 279.432-333.523 276.6 38.49 46.381 389.18-322.801z" />
<glyph unicode="&#xe944;" glyph-name="control-pause" d="M180.706 56.471h240.941v783.059h-240.941v-783.059zM240.941 779.294h120.471v-662.588h-120.471v662.588zM602.353 839.529v-783.059h240.941v783.059h-240.941zM783.059 116.706h-120.471v662.588h120.471v-662.588z" />
<glyph unicode="&#xe945;" glyph-name="control-play" d="M180.706 797.847v-699.814l699.814 351.593-699.814 348.22zM240.941 700.506l504.892-251.181-504.892-253.651v504.832z" />
<glyph unicode="&#xe946;" glyph-name="control-record" d="M512 809.412c-199.319 0-361.412-162.093-361.412-361.412s162.093-361.412 361.412-361.412 361.412 162.093 361.412 361.412-162.093 361.412-361.412 361.412zM512 146.824c-166.069 0-301.176 135.108-301.176 301.176s135.108 301.176 301.176 301.176 301.176-135.108 301.176-301.176-135.108-301.176-301.176-301.176z" />
<glyph unicode="&#xe947;" glyph-name="control-shuffle" d="M538.504 546.123l65.114 80.715-0.241 0.181c51.501 58.488 125.711 92.040 203.475 92.040h114.327l-99.147 99.147 42.586 42.586 171.851-171.851-171.912-171.912-42.586 42.586 99.208 99.208h-114.327c-59.573 0-116.314-25.6-156.311-69.813l-65.054-80.655-46.984 37.768zM352.437 315.723l-0.663 0.482c-40.177-50.176-100.171-79.029-164.623-79.029h-187.151v-60.235h187.151c82.462 0 159.322 36.804 211.004 100.954l0.663-0.542 56.681 70.234-46.803 37.888-56.26-69.752zM821.971 336.324l99.208-99.147h-114.327c-63.368 0-122.338 28.25-162.635 77.161l-257.144 317.139-0.602-0.482c-51.2 55.778-123.362 88.064-199.319 88.064h-187.151v-60.235h187.151c60.115 0 117.338-25.781 157.274-70.475l250.639-309.128-0.301-0.241c51.802-64.813 129.084-102.039 212.028-102.039h114.327l-99.147-99.147 42.586-42.586 171.912 171.912-171.912 171.912-42.586-42.707z" />
<glyph unicode="&#xe948;" glyph-name="control-skip-backward" d="M404.721 446.434l438.573-363.701v730.955l-438.573-367.255zM783.059 210.914l-284.25 235.761 284.25 237.99v-473.751zM180.706 839.529h60.235v-783.059h-60.235v783.059z" />
<glyph unicode="&#xe949;" glyph-name="control-skip-forward" d="M180.706 82.312l438.573 367.255-438.573 363.701v-730.955zM240.941 685.086l284.25-235.761-284.25-237.99v473.751zM843.294 839.529v-783.059h-60.235v783.059h60.235z" />
<glyph unicode="&#xe94a;" glyph-name="control-stop" d="M180.706 779.294v-662.588h662.588v662.588h-662.588zM783.059 176.941h-542.118v542.118h542.118v-542.118z" />
<glyph unicode="&#xe94b;" glyph-name="credit-card" d="M933.647 839.529h-843.294c-49.815 0-90.353-40.538-90.353-90.353v-602.353c0-49.815 40.538-90.353 90.353-90.353h843.294c49.815 0 90.353 40.538 90.353 90.353v602.353c0 49.815-40.538 90.353-90.353 90.353zM963.765 146.824c0-16.565-13.493-30.118-30.118-30.118h-843.294c-16.625 0-30.118 13.553-30.118 30.118v331.294h903.529v-331.294zM60.235 658.824v90.353c0 16.565 13.493 30.118 30.118 30.118h843.294c16.625 0 30.118-13.553 30.118-30.118v-90.353h-903.529z" />
<glyph unicode="&#xe94c;" glyph-name="crown" d="M760.531 553.833l-245.941 401.95-253.651-402.071-270.999 230.882 104.749-788.36h834.56l104.689 787.576-273.408-229.978zM147.396 56.471l-8.011 60.235h745.171l-8.011-60.235h-729.148zM892.567 176.941h-761.133l-61.139 460.017 204.559-174.2 238.953 378.88 231.966-379 208.053 175.044-61.259-460.74z" />
<glyph unicode="&#xe94d;" glyph-name="css3" d="M993.882 884.104l-144.986-726.679-438.332-145.528-380.446 145.528 38.731 194.138h161.912l-15.842-80.113 229.978-87.763 264.915 87.763 36.984 184.802h-658.312l31.563 161.792h658.974l20.781 104.207h-658.432l32.105 161.852h820.405z" />
<glyph unicode="&#xe94e;" glyph-name="cup" d="M1023.94 899.765h-135.951c0.060 10.12 0.482 19.757 0.482 30.118v30.118h-752.941v-30.118c0-9.638 0.241-20.058 0.301-30.118h-135.77l-0.060-30.057c-0.181-65.416 3.735-132.457 11.746-199.379 21.203-176.911 76.559-381.952 168.358-426.888 11.686-5.783 23.793-8.674 35.9-8.674 14.336 0 28.853 4.096 42.586 12.408l12.589 8.433c50.176-76.92 118.664-128.843 210.703-138.421v-120.952h-177.875v-60.235h421.647v60.235h-183.537v120.29c85.233 8.975 155.708 56.32 210.402 139.264l14.095-9.336c13.011-7.831 26.925-11.686 41.020-11.686 12.107 0 24.335 2.891 36.262 8.734 91.799 44.936 147.155 249.976 168.358 426.888 8.011 66.861 11.927 133.963 11.746 199.379l-0.060 29.997zM240.218 307.411l-13.794-9.276c-6.746-3.976-12.288-4.216-19.757-0.602-47.285 23.191-108.905 161.129-135.108 380.024-6.505 54.212-10.18 108.544-11.083 161.973h76.68c5.843-176.128 30.901-389.602 107.942-539.467l-4.879 7.349zM512 174.472c-273.468 0-313.163 484.894-316.055 725.293h632.109c-2.952-284.371-50.477-725.293-316.055-725.293zM952.44 677.557c-26.263-218.895-87.823-356.834-135.108-380.024-7.409-3.674-13.011-3.494-18.552-0.181l-15.059 10.059-6.987-10.481c64.994 122.76 102.822 305.152 110.291 542.6h76.559c-0.964-53.429-4.638-107.761-11.144-161.973z" />
<glyph unicode="&#xe94f;" glyph-name="cut" d="M783.059 297.412c-32.828 0-63.187-9.457-89.751-24.817l-139.866 147.817 377.073 398.396-43.791 41.442-374.724-395.987-374.844 395.987-43.731-41.442 377.073-398.396-139.866-147.757c-26.504 15.3-56.922 24.757-89.69 24.757-99.629 0-180.706-81.077-180.706-180.706s81.077-180.706 180.706-180.706 180.706 81.077 180.706 180.706c0 44.996-17.167 85.775-44.454 117.399l134.807 142.456 134.807-142.456c-27.347-31.684-44.454-72.403-44.454-117.399 0-99.629 81.077-180.706 180.706-180.706s180.706 81.077 180.706 180.706-81.077 180.706-180.706 180.706zM240.941-3.765c-66.44 0-120.471 54.031-120.471 120.471s54.031 120.471 120.471 120.471 120.471-54.031 120.471-120.471-54.031-120.471-120.471-120.471zM783.059-3.765c-66.44 0-120.471 54.031-120.471 120.471s54.031 120.471 120.471 120.471 120.471-54.031 120.471-120.471-54.031-120.471-120.471-120.471z" />
<glyph unicode="&#xe950;" glyph-name="dashboard" d="M1024 267.294v-30.118h-371.531v60.235h310.332c-6.746 101.918-47.526 194.62-110.953 267.083l-48.55-48.55-42.586 42.586 48.309 48.309c-72.403 63.428-165.045 103.966-266.903 110.773v-179.26h-60.235v179.26c-101.858-6.807-194.5-47.345-266.842-110.773l47.947-47.947-42.586-42.586-48.188 48.188c-63.428-72.463-104.267-165.165-110.953-267.083h311.477v-60.235h-372.736v30.118c0 282.323 229.677 512 512 512s512-229.677 512-512zM632.471 267.294c0-66.44-54.031-120.471-120.471-120.471s-120.471 54.031-120.471 120.471c0 38.792 18.733 72.885 47.224 94.991l-125.41 218.654 52.224 29.937 128.964-224.858c5.722 0.843 11.445 1.747 17.468 1.747 66.44 0 120.471-54.031 120.471-120.471zM572.235 267.294c0 33.19-27.046 60.235-60.235 60.235s-60.235-27.046-60.235-60.235 27.046-60.235 60.235-60.235 60.235 27.046 60.235 60.235z" />
<glyph unicode="&#xe951;" glyph-name="desktop" d="M120.471 297.412h783.059v481.882h-783.059v-481.882zM180.706 719.059h662.588v-361.412h-662.588v361.412zM933.647 899.765h-843.294c-49.815 0-90.353-38.43-90.353-85.715v-611.629c0-47.285 40.538-85.715 90.353-85.715h843.294c49.815 0 90.353 38.43 90.353 85.715v611.629c0 47.285-40.538 85.715-90.353 85.715zM963.765 202.421c0-14.095-13.553-25.48-30.118-25.48h-843.294c-16.565 0-30.118 11.384-30.118 25.48v611.629c0 14.095 13.553 25.48 30.118 25.48h843.294c16.565 0 30.118-11.384 30.118-25.48v-611.629zM301.176 56.471h421.647v-60.235h-421.647v60.235z" />
<glyph unicode="&#xe952;" glyph-name="direction" d="M1002.376 634.187l-169.321 205.342h-290.936v120.471h-60.235v-120.471h-421.647v-421.647h421.647v-481.882h60.235v481.882h291.418l168.84 216.305zM542.118 478.118h-421.647v301.176h684.152l120.531-146.131-121.013-155.046h-262.024z" />
<glyph unicode="&#xe953;" glyph-name="direction-alt" d="M542.118 598.588h282.805l116.736 154.383-117.218 146.793h-282.323v60.235h-60.235v-60.235h-361.412v-301.176h361.412v-120.471h-282.323l-117.218-146.793 116.736-154.383h282.805v-240.941h60.235v240.941h361.412v301.176h-361.412v120.471zM180.706 839.529h614.761l69.933-87.582-70.415-93.124h-614.28v180.706zM843.294 237.176h-614.28l-70.415 93.124 69.933 87.582h614.761v-180.706z" />
<glyph unicode="&#xe954;" glyph-name="download1" d="M1024-3.765v-60.235h-1024v60.235h1024zM804.382 426.677l-42.586 42.586-219.618-219.618v710.355h-60.235v-710.415l-219.678 219.738-42.647-42.647 292.382-292.322 292.382 292.322z" />
<glyph unicode="&#xe955;" glyph-name="dribbble" d="M512 960c-282.744 0-512-229.256-512-512s229.256-512 512-512 512 229.256 512 512-229.256 512-512 512zM963.403 440.712c-124.988 27.467-234.677 25.48-329.427 5.542-15.119 37.768-32.286 76.68-51.14 116.254 101.256 39.032 198.295 95.533 273.95 176.73 66.62-78.788 106.978-180.344 106.978-291.238 0-2.47-0.361-4.819-0.361-7.288zM814.562 782.487c-69.873-75.716-161.912-128.602-258.831-165.045-45.779 88.425-101.798 178.296-169.502 264.132 39.996 11.625 82.101 18.191 125.771 18.191 116.495 0 222.389-44.695 302.562-117.278zM327.078 859.708c68.247-84.149 124.205-173.719 170.345-262.204-179.14-55.416-359.364-61.922-428.514-62.042 28.552 144.986 126.735 265.035 258.168 324.247zM60.235 448c0 9.096 0.843 18.071 1.325 27.046 3.915-0.060 8.072-0.060 12.77-0.060 78.667 0 265.156 7.529 450.68 67.102 18.071-37.647 34.816-74.993 49.393-111.074-217.148-66.319-345.51-223.172-392.312-290.696-75.354 80.715-121.856 188.717-121.856 307.682zM226.364 98.394c35.9 54.272 156.672 211.908 370.146 275.275 57.886-156.491 84.631-285.756 94.328-340.39-54.874-23.733-115.29-37.045-178.839-37.045-108.303 0-207.752 38.37-285.636 102.159zM746.918 62.856c-11.927 64.030-38.31 183.236-90.534 325.572 86.98 16.866 187.272 17.348 301.658-8.734-20.54-134.084-99.87-248.712-211.125-316.838z" />
<glyph unicode="&#xe956;" glyph-name="dropbox" d="M1015.145 696.712l-319.006 208.053-184.139-152.877-183.477 152.877-319.669-208.053 186.729-149.143-186.669-149.504 207.45-135.108v-92.341l296.177-177.032 296.719 176.971v93.244l205.824 134.325-186.609 149.444 186.669 149.143zM700.356 830.072l212.028-138.3-134.445-107.339-214.438 131.915 136.855 113.724zM722.824 547.569l-210.824-130.048-210.824 130.048 210.824 129.747 210.824-129.747zM111.616 691.772l212.45 138.3 136.433-113.664-214.498-131.976-134.385 107.339zM111.556 403.125l134.445 107.761 214.558-132.397-136.493-113.845-212.51 138.481zM749.026 204.77l-236.424-141.131-235.942 141.071v18.974l51.923-33.792 183.537 152.998 184.079-152.998 52.887 34.515v-19.637zM912.444 403.064l-212.088-138.421-136.915 113.845 214.498 132.397 134.505-107.821z" />
<glyph unicode="&#xe957;" glyph-name="dropbox-alt" d="M30.118 397.161l283.528-184.922 198.355 165.406-285.816 176.489zM313.645 896.030l-283.528-184.983 196.066-156.913 285.816 176.309zM993.882 711.048l-283.467 184.983-198.415-165.587 285.877-176.309zM512 377.645l198.415-165.406 283.467 184.922-196.006 156.973zM512.602 342.046l-198.957-164.984-85.112 55.657v-62.344l284.070-170.406 284.13 170.406v62.344l-85.173-55.657z" />
<glyph unicode="&#xe958;" glyph-name="drupal" d="M515.795-33.882c-223.955 0-425.382 176.248-425.382 415.985 0 239.375 186.609 350.148 221.184 368.279 41.201 21.926 70.837 33.491 117.459 70.776 23.070 18.131 42.285 44.514 48.369 108.725 33.431-40.056 73.547-86.679 102.039-105.954 46.682-30.72 93.365-42.827 142.155-73.547 29.636-18.131 211.908-129.506 211.908-375.928 0-245.88-194.319-408.335-417.732-408.335zM845.101 363.49c-43.912 0-132.819-91.136-179.441-91.678-54.272-1.084-129.446 107.64-238.17 106.616-85.655-0.602-153.118-68.668-154.263-141.131-0.542-40.659 12.649-70.837 40.659-89.992 18.673-12.589 35.659-20.299 91.076-20.299 92.22 0 209.137 114.206 262.927 112.459 42.767-1.566 109.146-106.496 142.697-108.664 26.323-2.168 40.056 9.879 62.524 42.225 21.926 32.949 31.322 84.57 31.322 113.664 0 28.491-12.649 76.8-59.332 76.8zM717.824 72.072c-18.673-13.734-60.416-30.78-119.688-30.78s-87.221 12.649-105.894 26.925c-2.711 2.168-1.626 2.168-7.168 2.168-6.024 0-9.276-2.771-14.216-6.566-4.397-3.855-6.566-13.192 0-19.757 40.599-37.286 108.664-34.033 158.6-29.576 50.537 4.939 93.365 34.515 97.702 38.912 6.566 6.505 4.939 12.047 3.795 15.902-1.084 3.855-4.397 9.276-13.131 2.771zM688.128 165.858c-10.963 7.108-26.805 8.252-41.623 8.252-14.878 0-23.070 1.084-38.912-5.481-16.023-6.566-32.467-21.384-42.827-30.78-10.481-9.276-12.107-16.444-6.626-24.154 5.542-7.048 11.565-2.65 26.925 10.481 15.902 12.649 26.383 24.154 58.729 24.154s37.888-12.107 44.393-24.154c6.626-12.047 7.168-13.734 13.734-10.481 7.71 3.855 11.565 9.397 7.71 18.793-3.915 9.276-10.481 25.72-21.504 33.37z" />
<glyph unicode="&#xe959;" glyph-name="email" d="M0 839.529v-783.059h1024v783.059h-1024zM511.639 368.67l-415.383 410.624h832.452l-417.069-410.624zM346.654 447.036l-286.419-282.022v565.188l286.419-283.166zM389.481 404.691l122.037-120.651 120.23 118.423 289.129-285.756h-823.838l292.442 287.985zM674.696 444.687l289.069 284.612v-570.248l-289.069 285.636z" />
<glyph unicode="&#xe95a;" glyph-name="envelope1" d="M120.471 960v-1024h783.059v1024h-783.059zM282.805 719.059l-84.811 180.706h628.013l-84.932-180.706h-458.27zM244.616 658.824h237.267v-542.118h-241.062l-60.115-69.572v747.761l63.91-136.072zM268.348 56.471h487.424l51.923-60.235h-591.27l51.923 60.235zM783.42 116.706h-241.303v542.118h237.207l63.97 136.192v-747.821l-59.874 69.512z" />
<glyph unicode="&#xe95b;" glyph-name="eraser" d="M809.924 706.952l-312.983 180.766c-41.562 23.913-99.388 8.493-123.362-33.129l-361.412-626.025c-24.937-43.128-10.059-98.485 33.129-123.482l191.488-109.869 262.445 1.084 343.823 587.234c24.877 43.128 10.059 98.485-33.129 123.422zM464.595 56.41l-211.908-0.843-177.393 101.737c-14.396 8.373-19.336 26.744-11.023 41.201l165.647 286.961 363.038-209.619-128.361-219.437zM790.889 613.828l-167.514-286.118-363.339 209.8 165.647 286.961c5.361 9.276 15.42 15.059 26.142 15.059 5.301 0 10.36-1.325 14.999-3.976l312.983-180.706c14.396-8.373 19.336-26.805 11.083-41.020zM1024 56.471v-60.235h-421.647v60.235h421.647z" />
<glyph unicode="&#xe95c;" glyph-name="exchange-vertical" d="M361.412 53.88v424.237h-60.235v-424.237l-219.618 219.618-42.586-42.586 292.322-292.322 292.382 292.382-42.586 42.586-219.678-219.678zM330.571 24.486h1.385l-0.663-0.723-0.723 0.723zM942.441 622.441l-219.618 219.678v-427.43h-60.235v427.43l-219.618-219.678-42.647 42.647 292.382 292.322 292.382-292.382-42.647-42.586z" />
<glyph unicode="&#xe95d;" glyph-name="export" d="M262.566 601.239l-43.249 41.984 292.683 301.478 292.683-301.478-43.249-41.924-219.317 225.882v-648.553h-60.235v648.553l-219.317-225.943zM963.765 416.075v-389.722c0-16.625-13.493-30.118-30.118-30.118h-843.294c-16.625 0-30.118 13.493-30.118 30.118v390.024h-60.235v-390.024c0-49.815 40.538-90.353 90.353-90.353h843.294c49.815 0 90.353 40.538 90.353 90.353v389.722h-60.235z" />
<glyph unicode="&#xe95e;" glyph-name="eye1" d="M1021.892 428.905c-77.342 196.789-282.323 329.065-509.892 329.065s-432.55-132.277-509.892-329.065c-2.771-7.048-2.771-14.938 0-21.986 77.402-196.849 282.323-329.126 509.892-329.126s432.489 132.216 509.892 329.065c2.831 7.108 2.831 14.938 0 22.046zM512 138.029c-198.656 0-377.615 111.977-449.295 279.853 71.62 167.876 250.579 279.853 449.295 279.853s377.675-111.977 449.295-279.853c-71.68-167.816-250.639-279.853-449.295-279.853zM512 637.32c-121.013 0-219.437-98.424-219.437-219.437s98.424-219.437 219.497-219.437c120.952 0 219.437 98.424 219.437 219.437s-98.485 219.437-219.497 219.437zM512 258.68c-87.823 0-159.262 71.439-159.262 159.202s71.499 159.202 159.262 159.202c87.763 0 159.202-71.439 159.202-159.202s-71.379-159.202-159.202-159.202zM512 499.622c-45.056 0-81.739-36.683-81.739-81.739s36.683-81.739 81.739-81.739 81.739 36.683 81.739 81.739-36.683 81.739-81.739 81.739zM512 396.378c-11.866 0-21.504 9.638-21.504 21.504s9.638 21.504 21.504 21.504 21.504-9.638 21.504-21.504-9.638-21.504-21.504-21.504z" />
<glyph unicode="&#xe95f;" glyph-name="facebook" d="M750.592 624.489l-18.613-176.489h-141.071v-512h-211.908v512h-105.592v176.489h105.592v106.255c0 143.541 59.693 229.256 229.376 229.256h141.011v-176.489h-88.245c-65.837 0-70.234-24.877-70.234-70.837v-88.184h159.684z" />
<glyph unicode="&#xe960;" glyph-name="face-sad" d="M512 960c-282.323 0-512-229.677-512-512s229.677-512 512-512 512 229.677 512 512-229.677 512-512 512zM512-3.765c-249.133 0-451.765 202.632-451.765 451.765s202.632 451.765 451.765 451.765 451.765-202.632 451.765-451.765-202.632-451.765-451.765-451.765zM783.059 176.941c0-16.625-13.493-30.118-30.118-30.118s-30.118 13.493-30.118 30.118c0 116.254-94.569 210.824-210.824 210.824s-210.824-94.569-210.824-210.824c0-16.625-13.493-30.118-30.118-30.118s-30.118 13.493-30.118 30.118c0 149.444 121.615 271.059 271.059 271.059s271.059-121.615 271.059-271.059zM271.059 628.706c0 33.25 26.985 60.235 60.235 60.235s60.235-26.985 60.235-60.235-26.985-60.235-60.235-60.235-60.235 26.985-60.235 60.235zM632.471 628.706c0 33.25 26.985 60.235 60.235 60.235s60.235-26.985 60.235-60.235-26.985-60.235-60.235-60.235-60.235 26.985-60.235 60.235z" />
<glyph unicode="&#xe961;" glyph-name="face-smile" d="M512 960c-282.323 0-512-229.677-512-512s229.677-512 512-512 512 229.677 512 512-229.677 512-512 512zM512-3.765c-249.133 0-451.765 202.632-451.765 451.765s202.632 451.765 451.765 451.765 451.765-202.632 451.765-451.765-202.632-451.765-451.765-451.765zM783.059 417.882c0-149.444-121.615-271.059-271.059-271.059s-271.059 121.615-271.059 271.059c0 16.625 13.493 30.118 30.118 30.118s30.118-13.493 30.118-30.118c0-116.254 94.569-210.824 210.824-210.824s210.824 94.569 210.824 210.824c0 16.625 13.493 30.118 30.118 30.118s30.118-13.493 30.118-30.118zM271.059 628.706c0 33.25 26.985 60.235 60.235 60.235s60.235-26.985 60.235-60.235-26.985-60.235-60.235-60.235-60.235 26.985-60.235 60.235zM632.471 628.706c0 33.25 26.985 60.235 60.235 60.235s60.235-26.985 60.235-60.235-26.985-60.235-60.235-60.235-60.235 26.985-60.235 60.235z" />
<glyph unicode="&#xe962;" glyph-name="file" d="M582.295 960h-461.824v-1024h783.059v704.271l-321.235 319.729zM602.353 855.070l197.15-196.247h-197.15v196.247zM180.706-3.765v903.529h361.412v-301.176h301.176v-602.353h-662.588z" />
<glyph unicode="&#xe963;" glyph-name="files" d="M752.76 960h-391.349v-121.073h60.235v60.838h301.176v-240.941h240.941v-481.882h-241.965v-60.235h302.2v591.39l-271.24 251.904zM783.059 849.649l140.649-130.59h-140.649v130.59zM0 779.294v-843.294h662.588v591.39l-271.24 251.904h-391.349zM421.647 668.943l140.649-130.59h-140.649v130.59zM60.235-3.765v722.824h301.176v-240.941h240.941v-481.882h-542.118z" />
<glyph unicode="&#xe964;" glyph-name="filter" d="M32.527 960l389.12-555.912v-468.088h180.706v468.088l389.12 555.912h-958.946zM542.118 423.063v-426.827h-60.235v426.827l-333.704 476.702h727.642l-333.704-476.702z" />
<glyph unicode="&#xe965;" glyph-name="flag1" d="M783.059 357.165v556.454l-715.535-278.227 715.535-278.227zM722.824 445.169l-489.171 190.223 489.171 190.283v-380.506zM903.529 960v-1024h-60.235v1024h60.235z" />
<glyph unicode="&#xe966;" glyph-name="flag-alt" d="M903.529 960v-1024h-60.235v1024h60.235zM91.979 901.21h691.080v-481.882h-692.104l175.345 238.050-174.321 243.832zM722.824 840.975h-513.687l131.614-184.079-130.59-177.333h512.663v361.412z" />
<glyph unicode="&#xe967;" glyph-name="flag-alt-2" d="M903.529 960v-1024h-60.235v1024h60.235zM300.213 899.765h481.882v-481.882h-300.213v-120.471h-421.647v481.882h239.977v120.471zM421.647 417.882h-120.471v301.176h-180.706v-361.412h301.176v60.235zM360.448 839.529v-60.235h0.964v-301.176h360.448v361.412h-361.412z" />
<glyph unicode="&#xe968;" glyph-name="flickr" d="M439.416 448c0-121.314-98.424-219.678-219.618-219.678-121.374 0-219.799 98.364-219.799 219.678s98.424 219.678 219.799 219.678c121.193 0 219.618-98.364 219.618-219.678zM1024 448c0-121.314-98.424-219.678-219.799-219.678-121.193 0-219.618 98.424-219.618 219.678s98.424 219.678 219.618 219.678c121.374 0 219.799-98.364 219.799-219.678zM963.765 448c0 87.944-71.56 159.443-159.563 159.443-87.883 0-159.383-71.56-159.383-159.443s71.499-159.443 159.383-159.443c88.004 0 159.563 71.499 159.563 159.443z" />
<glyph unicode="&#xe969;" glyph-name="flickr-alt" d="M512 929.882c-266.12 0-481.882-215.823-481.882-481.882 0-266.12 215.763-481.882 481.882-481.882s481.882 215.763 481.882 481.882c0 266.059-215.763 481.882-481.882 481.882zM327.258 298.677c-83.787 0-151.733 67.825-151.733 151.672 0 83.787 67.945 151.672 151.733 151.672s151.612-67.885 151.612-151.672c0-83.848-67.885-151.672-151.612-151.672zM707.765 298.677c-83.787 0-151.672 67.825-151.672 151.672 0 83.787 67.885 151.672 151.672 151.672s151.672-67.885 151.672-151.672c0-83.848-67.885-151.672-151.672-151.672z" />
<glyph unicode="&#xe96a;" glyph-name="folder" d="M481.882 719.059l-117.941 120.471h-363.942v-903.529h1024v783.059h-542.118zM338.643 779.294l117.941-120.471h507.181v-122.097l-903.529 1.566v241.001h278.408zM60.235-3.765v481.822l903.529-1.566v-480.256h-903.529z" />
<glyph unicode="&#xe96b;" glyph-name="fullscreen" d="M963.524 276.209l0.241-279.974-280.034 0.241 0.060 60.235 177.092-0.181-348.883 348.823-348.883-348.883 177.092 0.181 0.060-60.235-280.034-0.181 0.241 280.034 60.235-0.060-0.181-177.032 348.883 348.823-348.883 348.883 0.181-177.032-60.235-0.060-0.241 279.974 280.034-0.241-0.060-60.235-177.092 0.181 348.883-348.883 348.883 348.883-177.092-0.181-0.060 60.235 280.034 0.241-0.241-280.034-60.235 0.060 0.181 177.032-348.883-348.823 348.883-348.883-0.181 177.032 60.235 0.060z" />
<glyph unicode="&#xe96c;" glyph-name="gallery" d="M783.059 357.647v602.353h-783.059v-783.059h783.059v180.706zM60.235 899.765h662.588v-481.882h-45.478l-154.443 199.921-69.813-73.126-135.409 233.773-215.401-360.568h-42.044v481.882zM601.269 417.882h-428.815l144.444 241.784 124.326-214.679 76.8 80.535 83.245-107.64zM60.235 237.176v120.471h662.588v-120.471h-662.588zM1024 779.294v-783.059h-783.059v119.507h60.235v-59.272h662.588v662.588h-120.471v60.235h180.706z" />
<glyph unicode="&#xe96d;" glyph-name="game" d="M542.118 719.782v179.983h-60.235v-179.983c-214.679-6.325-481.882-77.222-481.882-149.805v-424.117c0-49.815 40.538-90.353 90.353-90.353h107.821l120.23 236.785c34.153-6.264 103.183-16.504 191.127-16.504 89.088 0 162.274 10.481 198.054 16.685l114.929-236.966h111.134c49.815 0 90.353 40.538 90.353 90.353v424.117c0 72.584-267.264 143.541-481.882 149.805zM963.765 145.86c0-16.565-13.553-30.118-30.118-30.118h-73.367l-119.025 245.158-23.251-5.12c-0.904-0.181-91.256-19.817-208.535-19.817-116.917 0-199.68 19.456-200.523 19.697l-23.13 5.602-124.567-245.459h-70.897c-16.565 0-30.118 13.553-30.118 30.118v416.527c30.238 26.323 203.595 91.437 421.647 97.039v-0.663h60.235v0.783c217.992-5.662 391.409-70.776 421.647-97.099v-416.648zM301.176 537.148h60.115v-60.235h-60.115v-61.44h-60.235v61.44h-60.235v60.235h60.235v61.44h60.235v-61.44zM752.941 416.678c49.815 0 90.353 40.538 90.353 90.353s-40.538 90.353-90.353 90.353-90.353-40.478-90.353-90.353 40.538-90.353 90.353-90.353zM752.941 537.148c16.565 0 30.118-13.553 30.118-30.118s-13.553-30.118-30.118-30.118-30.118 13.553-30.118 30.118 13.553 30.118 30.118 30.118z" />
<glyph unicode="&#xe96e;" glyph-name="gift1" d="M472.184 622.020l-2.048-11.927 40.538 5.18c0.241 0 1.265 0.181 1.867 0.241l38.37-4.879-1.867 10.903c65.656 12.168 199.258 43.671 275.576 109.026 29.756 25.419 46.14 59.633 46.14 96.376s-16.384 70.957-46.14 96.437c-56.742 48.67-154.263 48.61-211.004 0-49.032-41.984-81.86-103.966-103.063-158.298-21.203 54.212-54.031 116.013-103.063 157.877-56.681 48.55-154.082 48.489-210.763 0-29.756-25.419-46.14-59.573-46.14-96.196s16.384-70.716 46.14-96.075c76.318-65.175 209.92-96.557 275.456-108.664zM652.77 877.598c17.528 14.999 41.020 23.251 66.319 23.251 25.239 0 48.851-8.252 66.319-23.251 16.203-13.794 25.058-31.804 25.058-50.658 0-18.793-8.855-36.744-25.058-50.598-62.163-53.188-176.429-81.619-238.893-93.847 14.758 53.489 47.164 144.504 106.255 195.102zM235.821 877.176c17.528 14.938 41.020 23.191 66.319 23.191 25.239 0 48.791-8.252 66.259-23.191 58.79-50.176 91.196-140.77 106.014-194.138-62.404 12.107-176.369 40.358-238.592 93.485-16.143 13.734-24.998 31.563-24.998 50.236 0 18.733 8.855 36.623 24.998 50.417zM1024 598.588h-1024v-240.941h60.235v-421.647h903.529v421.647h60.235v240.941zM420.201 538.353h181.067l64.211-351.955-99.268 41.261-78.366-72.584-67.644 383.277zM60.235 538.353h298.767l21.263-120.471h-320.030v120.471zM903.529-3.765h-783.059v361.412h270.456l56.742-321.837 131.072 121.374 165.768-68.969-49.092 269.432h208.113v-361.412zM963.765 417.882h-279.371l-21.986 120.471h301.357v-120.471z" />
<glyph unicode="&#xe96f;" glyph-name="github" d="M787.697 290.485c0-44.936-23.432-118.182-78.788-118.182-55.416 0-78.848 73.246-78.848 118.182 0 44.875 23.432 118.182 78.848 118.182 55.356 0 78.788-73.306 78.788-118.182zM315.091 408.666c-55.356 0-78.788-73.306-78.788-118.182 0-44.936 23.432-118.182 78.788-118.182s78.788 73.246 78.788 118.182c0 44.875-23.432 118.182-78.788 118.182zM1024 398.788c0-68.367-6.746-140.951-37.527-203.716-81.257-164.322-304.61-180.284-464.595-180.284-162.455 0-399.36 14.095-483.689 180.284-31.443 62.163-38.189 135.349-38.189 203.716 0 89.871 24.636 174.743 83.727 243.652-11.083 33.852-16.625 69.572-16.625 104.689 0 46.14 10.421 92.22 31.383 134.144 97.22 0 159.383-42.466 233.231-100.292 62.163 14.758 126.133 21.504 190.163 21.504 57.826 0 116.314-6.204 172.333-19.697 73.246 57.224 135.349 98.485 231.364 98.485 20.962-41.864 31.383-88.004 31.383-134.144 0-35.117-5.542-70.174-16.625-103.424 59.091-69.512 83.667-155.046 83.667-244.917zM886.121 290.485c0 94.148-57.163 177.212-157.515 177.212-40.599 0-79.33-7.409-119.989-12.951-31.985-4.939-63.97-6.746-96.617-6.746s-64.632 1.807-96.617 6.746c-39.996 5.542-79.39 12.951-119.989 12.951-100.292 0-157.515-83.064-157.515-177.212 0-188.296 172.273-217.208 322.44-217.208h103.424c150.167-0.060 322.379 28.913 322.379 217.208z" />
<glyph unicode="&#xe970;" glyph-name="google" d="M1024 802.485v-78.788h-157.515v-157.576h-78.788v157.576h-157.515v78.788h157.515v157.515h78.788v-157.515h157.515zM625.845 190.193c0-70.776-33.792-128-86.136-173.538-70.776-60.958-167.394-80.655-258.47-80.655-115.049 0-281.239 49.212-281.239 191.97 0 28.913 9.879 57.284 22.829 83.125 54.694 110.712 225.762 139.083 335.932 142.155-20.239 26.443-39.334 57.163-39.334 91.678 0 20.299 7.288 33.852 13.553 52.887-14.818-1.807-28.913-3.072-43.068-3.072-119.386 0-222.75 88.004-222.75 211.727 0 116.917 90.413 216.606 202.391 241.182 37.587 8.072 76.258 12.348 115.049 12.348h269.011l-83.064-48.61h-83.185c61.018-38.129 91.738-112.64 91.738-181.549 0-163.057-137.879-175.345-137.879-256.602 0-79.39 184.621-110.773 184.621-283.046zM465.318 667.678c0 93.545-50.537 247.989-164.382 247.989-80.535 0-119.928-71.379-119.928-144.023 0-93.485 61.5-239.977 171.068-239.977 84.209 0.060 113.242 60.958 113.242 136.011zM539.106 137.246c0 86.136-80.715 134.144-143.42 177.875-10.481 1.205-20.36 1.205-30.84 1.205-100.834 0-251.061-31.985-251.061-159.985 0-118.121 132.939-163.72 231.424-163.72 91.678 0 193.897 36.924 193.897 144.625z" />
<glyph unicode="&#xe971;" glyph-name="hand-drag" d="M841.065 622.682v-352.015c0-46.803-23.070-74.752-39.936-95.112-14.095-17.107-21.444-26.684-21.444-41.803v-107.4c0-16.625-13.493-30.118-30.118-30.118s-30.118 13.493-30.118 30.118v107.4c0 37.527 19.576 61.199 35.298 80.173 14.577 17.649 26.142 31.563 26.142 56.681v352.075c0 18.793-16.143 36.503-33.19 36.503-19.817 0-24.034-3.072-24.215-3.192-3.976-5.361-3.855-34.274-3.795-57.585 0.060-11.384 0.12-24.094-0.12-38.069-0.241-16.504-12.83-28.792-30.359-29.696-16.504 0.12-29.877 13.553-29.877 30.118v127.699c0 18.492-13.372 32.407-31.081 32.407-16.264 0-28.19-12.107-29.636-29.395v-120.651c0-16.625-13.493-30.118-30.118-30.118s-30.118 13.493-30.118 30.118v0 121.133c0 0.181-0.12 0.361-0.12 0.602v46.562c0 3.976-0.843 38.671-28.552 38.671-27.106 0-31.202-24.215-31.202-38.671v-42.345c0-1.687-0.663-3.253-0.964-4.879v-156.25c0-16.625-13.493-30.118-30.118-30.118s-30.118 13.493-30.118 30.118v0 161.672c-2.891 11.686-11.324 23.492-28.070 23.492-17.227 0-31.744-15.721-31.744-34.334v-201.788c0-0.422-0.361-0.783-0.361-1.205v-66.319c0-16.625-13.493-30.118-30.118-30.118s-30.118 13.493-30.118 30.118v50.236c-10.601 3.855-25.961 6.987-34.756 5-7.108-1.385-14.276-7.65-18.733-16.324-3.554-6.807-8.312-20.902-0.542-38.37l102.28-223.895c0.964-2.108 1.626-4.277 2.108-6.505 3.373-16.565 18.793-27.467 35.418-25.961 8.373 1.084 16.926-1.807 23.311-7.529 6.325-5.722 9.999-13.854 9.999-22.408v-105.050c0-16.625-13.493-30.118-30.118-30.118s-30.118 13.493-30.118 30.118v77.463c-32.286 8.373-58.368 33.792-66.68 67.765l-101.135 221.365c-13.252 29.877-12.469 62.825 1.928 90.775 12.89 24.877 35.418 42.707 60.296 47.767 12.649 2.59 29.756 1.867 46.682-1.566v43.369c0 0.602 0.301 1.144 0.361 1.747v111.435c0 52.164 41.321 94.569 91.979 94.569 12.047 0 23.612-2.409 34.093-6.746 11.987 38.792 44.152 63.669 86.317 63.669 40.237 0 71.8-25.419 83.667-63.91 10.722 4.518 22.468 6.987 34.876 6.987 41.502 0 75.776-26.744 87.16-64.572 11.023 2.409 22.227 2.952 32.286 2.952 50.718 0 93.485-44.273 93.485-96.738z" />
<glyph unicode="&#xe972;" glyph-name="hand-open" d="M918.106 633.525l-71.56-485.737c-7.108-36.864-23.432-53.007-35.298-64.813-11.505-11.445-19.155-19.034-19.155-56.2v-60.657c0-16.625-13.493-30.118-30.118-30.118s-30.118 13.493-30.118 30.118v60.657c0 57.525 16.745 78.848 36.984 98.906 9.336 9.276 14.938 14.878 18.312 32.166l71.379 484.232c1.084 7.409 3.072 32.527-16.444 35.238-6.746 0.964-12.228-0.12-16.565-3.433-5.783-4.277-9.879-12.589-11.324-22.769l-29.937-199.74c-1.506-10.3-8.312-19.034-17.83-23.191s-20.54-3.012-29.154 2.952c-3.012-0.482-8.072 1.385-13.131 4.698-9.156 5.843-14.396 16.143-13.794 26.985l17.167 318.404c1.385 16.745-10.24 30.66-26.022 32.045-7.65 0.723-14.999-1.687-20.841-6.566-5.903-4.939-9.397-11.806-10.059-19.336l-27.889-288.045c-1.566-16.203-14.396-27.949-31.985-27.166-4.879 0.301-9.818 0.602-14.818 0.663-16.203 0.361-29.214 13.432-29.515 29.576l-6.927 368.58c0 16.143-12.649 28.792-28.19 28.792s-28.19-12.649-28.19-28.19l-7.108-396.71c-0.241-11.445-6.867-21.805-17.227-26.684-3.735-1.807-7.349-3.614-10.782-5.542-8.855-5.060-19.637-5.24-28.672-0.482-9.035 4.698-15.119 13.673-16.143 23.793l-31.021 320.994c-0.663 7.891-4.216 14.758-9.999 19.637-5.843 4.879-13.734 7.108-20.781 6.566-7.59-0.663-14.396-4.216-19.275-10.059-4.819-5.783-7.168-13.131-6.505-20.661l30.298-427.49c0.964-13.131-6.807-25.419-19.095-30.178-12.408-4.819-26.383-1.024-34.515 9.336l-93.425 117.64c-12.228 20.48-33.852 26.202-50.598 16.504-8.192-4.759-14.035-12.348-16.444-21.444-2.409-9.035-1.205-18.552 3.614-26.684l212.57-366.652c4.819-8.373 12.71-14.216 22.106-16.504 13.493-3.253 23.010-15.36 23.010-29.274v-41.562c0-16.625-13.493-30.118-30.118-30.118s-30.118 13.493-30.118 30.118v21.082c-15.3 8.252-28.009 20.54-36.984 36.021l-212.631 366.652c-12.83 22.046-16.264 47.767-9.638 72.403 6.505 24.696 22.347 45.297 44.514 58.127 45.658 26.323 104.087 10.662 130.349-34.876l30.479-38.189-23.432 330.27c-2.048 23.010 5.18 46.020 20.36 64.211 15.179 18.071 36.623 29.214 60.175 31.322 23.913 2.168 46.682-5.24 64.873-20.48 8.794-7.409 15.842-16.203 21.082-25.961l0.843 45.357c0 48.309 39.695 87.944 88.425 87.944s88.425-39.695 88.425-88.486l0.843-44.936c5.301 9.818 12.408 18.673 21.263 26.142 18.251 15.3 41.442 22.648 64.934 20.48 48.851-4.277 85.052-47.465 80.776-96.256l-3.192-58.91c1.566 1.385 3.253 2.711 4.879 3.976 17.348 13.011 38.37 18.071 61.32 14.938 47.285-6.566 75.174-49.152 67.584-103.424z" />
<glyph unicode="&#xe973;" glyph-name="hand-point-down" d="M828.416 279.16c-57.585-34.756-102.52 10.421-119.386 27.347l-15.661 16.986v-295.032c0-51.019-40.659-92.461-90.654-92.461s-90.654 41.442-90.654 92.461v140.047c-9.758-3.554-20.239-5.481-31.142-5.481-47.586 0-86.739 37.888-90.112 85.775-9.517-3.554-19.757-5.421-30.419-5.421-49.995 0-90.654 41.502-90.654 92.582v8.192c-8.734-2.952-18.071-4.518-27.889-4.518-50.296 0-91.256 41.502-91.256 92.461v191.91c0 40.358 19.396 93.666 36.503 140.649 11.144 30.539 23.733 65.175 23.733 78.848v51.561c0 16.625 13.493 30.118 30.118 30.118s30.118-13.493 30.118-30.118v-51.501c0-24.335-12.047-57.525-27.347-99.509-15.42-42.345-32.888-90.293-32.888-120.049v-191.91c0-17.468 14.216-32.226 31.081-32.226 17.589 0 27.347 15.782 27.889 31.322 0.602 16.264 13.914 29.033 30.118 29.033 0.181 0 0.361 0 0.542 0 16.384-0.301 29.576-13.734 29.576-30.118v-94.088c0-17.83 13.673-32.346 30.419-32.346 15.902 0 29.154 13.252 30.238 30.118 0.964 16.203 14.155 28.311 30.961 28.19 16.264-0.542 29.154-13.854 29.154-30.118v-76.378c0-17.769 13.553-32.226 30.118-32.226 15.601 0 29.335 12.168 31.383 27.768 2.048 15.721 16.083 27.949 31.804 26.202 15.842-1.024 28.19-14.155 28.19-30.057v-218.714c0-17.769 13.673-32.226 30.419-32.226s30.419 14.456 30.419 32.226v372.254c0 12.408 7.59 23.552 19.155 28.070 11.384 4.518 24.636 1.446 33.129-7.65l67.102-72.945c27.648-27.829 36.563-22.468 45.056-17.288 14.818 8.794 19.938 29.154 11.324 44.574l-198.054 427.55c-3.192 5.481-9.879 10.722-17.89 12.71-13.372 3.373-22.769 15.36-22.769 29.214v50.116c0 16.625 13.493 30.118 30.118 30.118s30.118-13.493 30.118-30.118v-30.057c14.035-8.072 25.781-19.878 33.973-34.575l198.054-427.55c23.672-41.803 8.915-98.244-34.033-123.723z" />
<glyph unicode="&#xe974;" glyph-name="hand-point-left" d="M989.184 146.824c0-16.625-13.493-30.118-30.118-30.118h-51.501c-13.673 0-48.309-12.589-78.848-23.733-47.044-17.107-100.352-36.503-140.71-36.503h-191.849c-51.019 0-92.521 40.96-92.521 91.317 0 9.818 1.566 19.155 4.518 27.889h-8.132c-51.019 0-92.521 40.719-92.521 90.714 0 10.662 1.867 20.841 5.361 30.359-47.887 3.313-85.775 42.406-85.775 90.052 0 10.903 1.928 21.384 5.481 31.202h-140.107c-51.019 0-92.461 40.659-92.461 90.594 0 49.995 41.442 90.714 92.461 90.714h294.972l-16.023 14.758c-17.83 17.769-62.825 62.645-28.19 120.35 25.48 42.767 81.92 57.525 125.771 32.949l423.334-195.885c16.143-8.975 28.371-20.962 36.563-35.117h30.118c16.625 0 30.118-13.493 30.118-30.118s-13.493-30.118-30.118-30.118h-50.056c-13.794 0-25.841 9.336-29.214 22.769-2.048 8.011-7.288 14.758-14.758 18.974l-423.334 195.825c-17.709 9.879-37.768 4.819-46.682-10.18-5.18-8.674-10.481-17.468 18.071-46.020l72.041-66.138c9.156-8.433 12.168-21.504 7.65-33.129s-15.661-19.155-28.070-19.155h-372.254c-17.709 0-32.166-13.673-32.166-30.479 0-16.745 14.456-30.359 32.226-30.359h218.714c15.902 0 29.033-12.288 30.057-28.19 1.024-15.842-10.421-29.756-26.142-31.804-15.601-1.988-27.768-15.842-27.768-31.443 0-16.565 14.456-30.118 32.226-30.118h76.378c16.264 0 29.636-12.951 30.118-29.154 0.482-16.324-12.047-29.997-28.25-31.021-16.866-1.084-30.057-14.276-30.057-30.178 0-16.806 14.517-30.479 32.286-30.479h94.088c16.444 0 29.816-13.192 30.118-29.576s-12.649-30.057-29.033-30.66c-15.541-0.542-31.322-10.3-31.322-27.889 0-16.806 14.818-31.021 32.286-31.021h191.849c29.756 0 77.764 17.468 120.109 32.888 41.924 15.3 75.113 27.347 99.388 27.347h51.501c16.685 0 30.178-13.493 30.178-30.118z" />
<glyph unicode="&#xe975;" glyph-name="hand-point-right" d="M1019.302 508.597c0-49.935-41.442-90.594-92.461-90.594h-140.047c3.554-9.758 5.481-20.299 5.481-31.202 0-47.646-37.888-86.739-85.775-90.112 3.494-9.517 5.361-19.697 5.361-30.359 0-49.995-41.502-90.714-92.521-90.714h-8.192c2.952-8.734 4.518-18.071 4.518-27.889 0-50.296-41.562-91.256-92.521-91.256h-191.849c-40.358 0-93.666 19.396-140.71 36.503-30.539 11.144-65.114 23.733-78.848 23.733h-51.501c-16.625 0-30.118 13.493-30.118 30.118s13.493 30.118 30.118 30.118h51.501c24.275 0 57.464-12.047 99.388-27.347 42.406-15.42 90.413-32.888 120.169-32.888h191.849c17.528 0 32.286 14.216 32.286 31.081 0 17.589-15.782 27.347-31.322 27.889-16.384 0.602-29.335 14.216-29.033 30.66s13.734 29.576 30.118 29.576h94.088c17.83 0 32.286 13.673 32.286 30.479 0 15.902-13.192 29.094-29.997 30.178-16.324 1.024-28.792 14.697-28.311 31.021 0.542 16.264 13.794 29.154 30.118 29.154h76.378c17.769 0 32.226 13.553 32.226 30.118 0 15.601-12.228 29.395-27.829 31.383-15.721 2.048-27.166 16.023-26.142 31.804 1.084 15.902 14.155 28.19 30.057 28.19h218.714c17.769 0 32.226 13.613 32.226 30.359 0 16.806-14.456 30.479-32.226 30.479h-372.254c-12.408 0-23.552 7.59-28.070 19.155s-1.385 24.696 7.71 33.129l72.945 67.042c27.708 27.648 22.408 36.442 17.288 45.056-8.915 14.999-28.913 20.179-44.695 11.324l-427.49-197.993c-5.361-3.132-10.601-9.879-12.71-17.89-3.313-13.432-15.3-22.769-29.154-22.769h-50.116c-16.625 0-30.118 13.493-30.118 30.118s13.493 30.118 30.118 30.118h30.057c8.072 14.035 19.817 25.781 34.515 33.973l427.55 198.054c41.743 23.492 98.304 8.794 123.784-34.033 34.575-57.645-10.421-102.52-27.287-119.386l-16.986-15.661h294.972c50.959 0 92.461-40.719 92.461-90.714z" />
<glyph unicode="&#xe976;" glyph-name="hand-point-up" d="M873.412 463.902v-191.91c0-40.358-19.396-93.666-36.503-140.649-11.144-30.539-23.733-65.175-23.733-78.908v-51.501c0-16.625-13.493-30.118-30.118-30.118s-30.118 13.493-30.118 30.118v51.501c0 24.335 12.107 57.525 27.347 99.509 15.42 42.285 32.888 90.232 32.888 119.989v191.97c0 17.468-14.216 32.226-31.081 32.226-17.589 0-27.347-15.782-27.889-31.322-0.542-16.384-12.589-30.539-30.6-29.033-16.384 0.301-29.576 13.734-29.576 30.118v94.088c0 17.83-13.673 32.346-30.419 32.346-15.902 0-29.154-13.252-30.238-30.118-1.024-16.264-13.734-29.214-31.021-28.19-16.264 0.542-29.154 13.854-29.154 30.118v76.318c0 17.769-13.493 32.226-30.118 32.226-15.601 0-29.335-12.168-31.383-27.768-2.048-15.661-15.782-27.768-31.804-26.142-15.842 1.024-28.19 14.155-28.19 30.057v218.714c0 17.769-13.673 32.226-30.419 32.226s-30.419-14.456-30.419-32.226v-372.254c0-12.408-7.59-23.552-19.155-28.070-11.505-4.518-24.696-1.446-33.129 7.65l-67.102 72.945c-27.648 27.829-36.563 22.528-45.056 17.288-14.818-8.794-19.938-29.154-11.324-44.574l198.054-427.55c3.192-5.481 9.939-10.722 17.89-12.71 13.432-3.433 22.769-15.42 22.769-29.214v-50.116c0-16.625-13.493-30.118-30.118-30.118s-30.118 13.493-30.118 30.118v30.057c-14.035 8.072-25.72 19.878-34.033 34.575l-197.993 427.55c-23.672 41.803-8.855 98.244 34.033 123.723 57.826 34.635 102.581-10.421 119.386-27.347l15.661-16.986v295.032c0 51.019 40.719 92.461 90.654 92.461s90.654-41.442 90.654-92.461v-140.047c9.758 3.494 20.239 5.421 31.142 5.421 47.646 0 86.739-37.888 90.112-85.775 9.517 3.554 19.757 5.421 30.419 5.421 49.995 0 90.654-41.502 90.654-92.582v-8.192c8.734 2.952 18.071 4.518 27.889 4.518 50.296 0.060 91.256-41.442 91.256-92.401z" />
<glyph unicode="&#xe977;" glyph-name="hand-stop" d="M843.294 694.784v-437.188c0-51.561-20.299-112.459-38.249-166.129-10.782-32.407-21.986-65.837-21.986-80.173v-45.176c0-16.625-13.493-30.118-30.118-30.118s-30.118 13.493-30.118 30.118v45.176c0 24.094 11.083 57.224 25.118 99.208 15.601 46.984 35.117 105.352 35.117 147.095v437.188c0 16.565-12.408 29.094-28.792 29.094-16.745 0-30.84-12.649-31.383-28.19 0-0.181-0.12-0.361-0.12-0.542l0.060-232.508c0-16.625-13.493-30.118-30.118-30.118s-30.118 13.493-30.118 30.118l-0.060 246.121c0 0.301 0.181 0.542 0.181 0.904v84.691c0 13.975-8.433 29.094-26.865 29.094-16.504 0-31.804-12.649-32.768-27.106-0.060-0.783-0.602-1.506-0.723-2.349v-269.854c0-16.625-13.493-30.118-30.118-30.118s-30.118 13.432-30.118 30.118v294.912c0 1.325 0.602 2.53 0.783 3.795v47.887c0 15.721-14.517 29.033-31.624 29.033-16.806 0-29.937-12.71-29.937-29.033v-52.164c0.12-0.904 0.542-1.687 0.542-2.65v0-294.912c0-16.625-13.493-30.118-30.118-30.118s-30.118 13.493-30.118 30.118v0 276.6c0 0.241-0.181 0.422-0.241 0.663-1.988 14.336-14.938 25.178-30.118 25.178-16.806 0-30.419-13.071-30.419-29.094v-343.642c0-12.529-7.71-23.733-19.396-28.13-11.505-4.397-24.877-1.205-33.19 8.132l-67.283 75.535c-23.672 27.648-39.514 18.733-45.357 15.36-6.987-3.915-11.987-10.3-13.975-17.89-1.928-7.288-0.843-14.938 3.012-21.504l198.295-422.189c2.771-4.397 9.517-9.336 17.709-11.324 13.553-3.253 23.010-15.36 23.010-29.274v-53.308c0-16.625-13.493-30.118-30.118-30.118s-30.118 13.493-30.118 30.118v32.888c-13.914 7.71-25.48 18.914-33.732 32.828l-198.234 422.249c-10.842 18.010-14.155 42.044-8.072 65.114 6.204 23.311 21.323 42.767 42.526 54.814 40.719 22.95 85.655 12.408 120.471-28.19l14.276-16.023v264.553c0 49.272 40.659 89.329 90.654 89.329 10.481 0 20.661-1.807 30.118-5.12 4.036 45.598 42.767 81.438 89.811 81.438 48.248 0 87.883-36.382 91.618-82.342 10.3 3.855 21.444 6.024 33.009 6.024 48.851 0 87.1-39.213 87.1-89.329v-15.782c9.818 3.554 20.36 5.481 31.322 5.481 49.875 0.060 88.968-39.153 88.968-89.269z" />
<glyph unicode="&#xe978;" glyph-name="harddrive" d="M851.366 779.535h-678.611l-172.755-263.469v-399.601h1024v395.686l-172.634 267.384zM205.342 719.3h613.195l116.977-181.188h-848.956l118.784 181.188zM60.235 176.7v301.176h903.529v-301.176h-903.529zM813.176 417.641c-49.815 0-90.353-40.538-90.353-90.353s40.538-90.353 90.353-90.353 90.353 40.538 90.353 90.353-40.538 90.353-90.353 90.353zM813.176 297.171c-16.565 0-30.118 13.553-30.118 30.118s13.553 30.118 30.118 30.118 30.118-13.553 30.118-30.118-13.553-30.118-30.118-30.118z" />
<glyph unicode="&#xe979;" glyph-name="harddrives" d="M813.176 207.059c-49.815 0-90.353-40.538-90.353-90.353s40.538-90.353 90.353-90.353 90.353 40.538 90.353 90.353-40.538 90.353-90.353 90.353zM813.176 86.588c-16.565 0-30.118 13.553-30.118 30.118s13.553 30.118 30.118 30.118 30.118-13.553 30.118-30.118-13.553-30.118-30.118-30.118zM1024 770.259l-176.068 189.741h-671.684l-176.248-185.946v-387.494h56.38l-56.38-70.596v-379.964h1024v377.073l-63.006 73.487h63.006v383.699zM202.089 899.765h619.58l111.676-120.471h-845.402l114.146 120.471zM60.235-3.765v240.941h903.529v-240.941h-903.529zM958.103 297.412h-895.88l71.138 89.148h748.363l76.378-89.148zM60.235 446.795v272.264h903.529v-272.264h-903.529zM813.176 658.824c-49.815 0-90.353-40.538-90.353-90.353 0-49.754 40.538-90.293 90.353-90.293s90.353 40.538 90.353 90.293c0 49.815-40.538 90.353-90.353 90.353zM813.176 538.413c-16.565 0-30.118 13.493-30.118 30.057s13.553 30.118 30.118 30.118 30.118-13.553 30.118-30.118-13.553-30.057-30.118-30.057z" />
<glyph unicode="&#xe97a;" glyph-name="headphone" d="M962.62 472.998c-11.565 270.637-208.956 487.002-450.62 487.002s-439.055-216.365-450.62-487.002c-35.539-12.107-61.38-45.538-61.38-85.233v-240.941c0-49.815 40.358-90.353 89.992-90.353h90.714v60.235h60.235v301.176h-60.235v60.235h-58.91c13.553 235.038 183.115 421.647 390.204 421.647s376.651-186.609 390.204-421.647h-58.91v-60.235h-60.235v-301.176h60.235v-60.235h90.714c49.634 0 89.992 40.538 89.992 90.353v240.941c0 39.695-25.841 73.126-61.38 85.233zM120.471 116.706h-30.479c-16.384 0-29.756 13.553-29.756 30.118v240.941c0 16.565 13.372 30.118 29.756 30.118h30.479v-301.176zM963.765 146.824c0-16.565-13.372-30.118-29.756-30.118h-30.479v301.176h30.479c16.384 0 29.756-13.553 29.756-30.118v-240.941z" />
<glyph unicode="&#xe97b;" glyph-name="headphone-alt" d="M943.767 597.564c-57.645 214.257-232.689 362.436-431.767 362.436-198.475 0-374.182-148.42-431.767-362.436-44.996-4.939-80.233-42.888-80.233-89.329v-240.941c0-37.647 23.010-69.873 55.657-83.426 11.686-105.231 100.171-187.633 208.474-187.633h163.057c12.469-34.997 45.598-60.235 84.811-60.235h180.706c49.815 0 90.353 40.538 90.353 90.353s-40.538 90.353-90.353 90.353h-180.706c-39.213 0-72.343-25.239-84.811-60.235h-163.057c-72.764 0-133.542 51.802-147.516 120.471h64.090v60.235h60.235v301.176h-60.235v60.235h-36.503c54.995 178.357 201.909 301.176 367.797 301.176 166.37 0 312.802-122.699 367.797-301.176h-36.503v-60.235h-60.235v-301.176h60.235v-60.235h90.714c49.634 0 89.992 40.538 89.992 90.353v240.941c0 46.441-35.238 84.39-80.233 89.329zM512 56.471h180.706c16.565 0 30.118-13.493 30.118-30.118s-13.553-30.118-30.118-30.118h-180.706c-16.565 0-30.118 13.493-30.118 30.118s13.553 30.118 30.118 30.118zM120.471 237.176h-30.479c-16.384 0-29.756 13.493-29.756 30.118v240.941c0 16.625 13.372 30.118 29.756 30.118h30.479v-301.176zM963.765 267.294c0-16.625-13.372-30.118-29.756-30.118h-30.479v301.176h30.479c16.384 0 29.756-13.493 29.756-30.118v-240.941z" />
<glyph unicode="&#xe97c;" glyph-name="heart1" d="M752.941 920.365c-104.749 0-195.825-59.753-240.941-146.914-45.116 87.16-136.192 146.914-240.941 146.914-149.444 0-271.059-121.615-271.059-271.059 0-20.661 2.891-42.104 9.276-67.343l6.566-21.143c86.257-262.264 461.342-565.79 477.304-578.5l18.854-15.179 18.854 15.179c16.986 13.673 417.19 337.197 477.485 579.102l6.746 22.167c6.084 24.215 8.915 45.116 8.915 65.717 0 149.444-121.615 271.059-271.059 271.059zM957.079 599.793l-6.807-22.287c-48.73-195.524-358.159-465.438-438.272-532.661-77.222 65.235-368.76 321.476-438.814 534.408l-6.024 19.034c-4.638 18.733-6.927 35.418-6.927 51.019 0 116.254 94.569 210.824 210.824 210.824s210.824-94.63 210.824-210.824v-15.179h60.235v15.179c0 116.254 94.569 210.824 210.824 210.824s210.824-94.569 210.824-210.824c0-15.541-2.289-31.744-6.686-49.513z" />
<glyph unicode="&#xe97d;" glyph-name="heart-broken" d="M9.216 581.963c-6.325 25.239-9.216 46.682-9.216 67.343 0 149.444 121.615 271.059 271.059 271.059 104.749 0 195.825-59.753 240.941-146.914 45.116 87.16 136.192 146.914 240.941 146.914 149.444 0 271.059-121.615 271.059-271.059 0-20.6-2.831-41.442-8.855-65.717l-6.807-22.167c-4.879-19.938-13.734-43.43-27.287-72.222l-54.453 25.66c11.806 25.178 19.396 45.116 23.793 62.705l6.746 22.227c4.397 17.769 6.626 33.973 6.626 49.513 0 116.254-94.569 210.824-210.824 210.824s-210.824-94.63-210.824-210.824h-60.235c0 116.254-94.569 210.824-210.824 210.824s-210.824-94.63-210.824-210.824c0-15.601 2.289-32.286 6.987-51.019l6.024-19.034c5.662-17.288 14.155-37.225 26.564-62.223l-53.971-26.865c-13.734 27.708-23.251 50.176-29.997 70.656l-6.626 21.143zM511.94 43.761c-48.55 38.129-186.85 152.576-299.731 301.96l-48.008-36.382c144.203-190.765 322.5-322.379 329.969-327.861l17.95-13.131 17.83 13.252c7.77 5.722 191.97 142.999 333.463 327.56l-47.767 36.683c-111.315-145.107-254.133-262.987-303.706-302.080zM853.655 513.355l-170.586-120.471-170.586 120.471-170.647-120.471-170.888 120.41-188.296-132.638 34.696-49.272 153.6 108.303 170.888-120.531 170.647 120.471 170.586-120.471 170.586 120.471 152.937-108.183 34.816 49.152-187.753 132.759z" />
<glyph unicode="&#xe97e;" glyph-name="help" d="M621.086 66.65c0-54.091-43.972-98.063-98.123-98.063-54.332 0-98.244 43.972-98.244 98.063 0 54.212 43.912 98.184 98.244 98.184 54.091 0 98.123-43.972 98.123-98.184zM702.825 817.062c-30.84 38.852-86.98 85.173-179.682 85.173-246.844 0-255.699-226.364-255.759-228.653l60.235-1.566c0.181 6.927 6.626 169.984 195.524 169.984 68.668 0 109.929-33.912 132.457-62.344 33.431-42.165 42.165-90.835 37.587-110.411-17.528-74.029-60.898-113.062-106.797-154.383-56.32-50.658-114.447-103.002-114.447-214.317h60.235c0 84.45 41.683 122.037 94.509 169.562 48.429 43.61 103.304 93.003 125.109 185.404 8.975 38.189-5 106.014-48.971 161.551z" />
<glyph unicode="&#xe97f;" glyph-name="help-alt" d="M512 960c-282.323 0-512-229.677-512-512s229.677-512 512-512 512 229.677 512 512-229.677 512-512 512zM512-3.765c-249.133 0-451.765 202.632-451.765 451.765s202.632 451.765 451.765 451.765 451.765-202.632 451.765-451.765-202.632-451.765-451.765-451.765zM581.752 223.985c0-34.214-27.829-62.103-62.103-62.103-34.394 0-62.223 27.889-62.223 62.103 0 34.334 27.829 62.163 62.223 62.163 34.274 0 62.103-27.768 62.103-62.163zM642.229 706.108c26.985-34.033 40.599-79.992 33.129-111.736-14.637-61.862-50.718-94.389-82.583-123.061-32.708-29.455-56.26-50.598-56.26-99.208h-60.235c0 75.354 40.418 111.797 76.137 143.962 27.768 24.998 53.971 48.61 64.211 92.1 2.048 8.614-2.349 36.141-21.685 60.536-18.492 23.432-43.851 35.298-75.174 35.298-107.159 0-112.58-86.98-112.821-96.919l-60.235 1.626c1.446 53.79 39.454 155.528 173.056 155.528 49.272 0 92.702-20.661 122.458-58.127z" />
<glyph unicode="&#xe980;" glyph-name="home1" d="M843.294-3.765h-180.706v361.412h-301.176v-361.412h-180.706v542.118h-60.235v-602.353h783.059v602.353h-60.235v-542.118zM421.647-3.765v301.176h180.706v-301.176h-180.706zM1011.712 570.097l-35.659-48.61-464.053 340.932-464.053-340.811-35.659 48.55 499.712 366.953 499.712-367.014z" />
<glyph unicode="&#xe981;" glyph-name="html5" d="M936.056 929.882l-77.101-866.123-348.16-97.641-345.751 97.641-77.101 866.123h848.113zM778.24 752.851h-532.48l28.311-321.656h368.7l-13.372-137.276-118.603-32.045-118.061 31.985-7.831 84.269h-105.352l13.252-167.394 218.052-60.235h2.349v0.602l216.305 59.633 30.118 327.68h-387.976l-9.035 109.026h405.986l9.638 105.412z" />
<glyph unicode="&#xe982;" glyph-name="hummer" d="M542.118 719.059h338.824l-217.389 240.941h-422.611v-240.941h240.941v-224.256h-67.765v-558.803h195.765v558.803h-67.765v224.256zM301.176 899.765h335.571l108.725-120.471h-444.296v120.471zM549.647-3.765h-75.294v438.332h75.294v-438.332z" />
<glyph unicode="&#xe983;" glyph-name="id-badge" d="M0 779.294v-722.824h1024v722.824h-1024zM963.765 116.706h-903.529v602.353h903.529v-602.353zM154.323 146.161l-60.235 1.325c1.988 86.136 84.209 159.744 199.319 181.73v19.637c-14.938 15.601-25.6 36.744-32.828 55.597-9.758 6.987-18.191 17.709-24.034 31.081-11.144 24.696-9.216 49.453 3.795 64.331-0.241 4.457-0.361 8.855-0.361 13.071l-0.12 11.083c-0.361 32.346-0.964 85.534 55.959 95.413 11.686 20.42 29.094 37.768 71.017 39.213 67.644 2.108 115.411-22.769 131.614-69.331 5.481-15.962 0.361-29.214-3.373-38.852-3.554-9.156-6.927-17.769-4.939-33.973 0.783-6.445 0.663-12.77 0.181-18.793 10.541-14.276 12.71-35.96 4.939-58.729-5.722-16.444-14.999-29.154-26.142-36.623-6.686-17.288-16.264-36.382-29.335-50.899v-22.709c114.989-22.588 194.44-94.63 196.427-181.188l-60.235-1.385c-1.385 61.5-72.885 114.929-170.044 127.036l-26.383 3.313v102.942l12.047 9.035c6.385 4.819 16.324 19.336 24.998 45.839l8.132 20.721 4.457 38.008c0.843 6.385 1.626 12.469 1.144 16.143-3.735 31.322 3.976 51.2 8.553 63.006 0.301 0.843 0.542 1.385 0.723 1.867-12.649 23.853-52.947 24.877-70.536 24.456-16.685-0.663-17.89-3.012-21.143-9.216-4.096-7.951-13.794-26.624-38.37-28.792-5.542-0.482-7.288-1.626-7.288-1.626-2.47-3.855-2.289-22.106-2.168-34.214l0.060-11.746c0-8.493 0.602-17.589 1.747-26.865l4.216-34.515 7.228-1.265 0.181-14.938c9.276-28.070 20.42-43.43 27.166-48.068l12.951-8.975v-101.617l-26.624-3.132c-97.099-11.384-171.309-66.138-172.695-127.398zM903.529 478.118h-301.176v60.235h301.176v-60.235zM843.294 357.647h-240.941v60.235h240.941v-60.235z" />
<glyph unicode="&#xe984;" glyph-name="image" d="M60.235 899.765v-903.529h903.529v903.529h-903.529zM903.529 56.471h-783.059v120.471h783.059v-120.471zM120.471 237.176v602.353h783.059v-602.353h-783.059zM855.522 347.708l-41.984-43.189-145.589 141.493-93.606-100.954-149.745 265.939-204.86-299.671-49.754 33.973 259.614 379.663 156.853-278.408 79.33 85.655 189.741-184.501z" />
<glyph unicode="&#xe985;" glyph-name="import" d="M512 136.162l-292.322 290.936 42.466 42.707 219.738-218.714v650.36h60.235v-650.36l219.678 218.654 42.466-42.707-292.262-290.876zM963.765 416.075v-389.722c0-16.625-13.493-30.118-30.118-30.118h-843.294c-16.625 0-30.118 13.493-30.118 30.118v390.024h-60.235v-390.024c0-49.815 40.538-90.353 90.353-90.353h843.294c49.815 0 90.353 40.538 90.353 90.353v389.722h-60.235z" />
<glyph unicode="&#xe986;" glyph-name="infinite" d="M1024 478.118c0-132.879-108.062-240.941-240.941-240.941-72.102 0-139.144 32.045-185.163 87.462l-0.12-0.060-0.843 1.084c-0.663 0.843-1.566 1.385-2.289 2.289l0.241 0.181-218.895 269.975c-34.274 38.551-83.486 60.717-135.048 60.717-99.629 0-180.706-81.077-180.706-180.706s81.077-180.706 180.706-180.706c55.115 0 106.556 24.696 141.071 67.765l0.542-0.422 49.212 60.958 46.863-37.828-49.574-61.38-0.602 0.482c-45.96-57.043-114.266-89.811-187.512-89.811-132.879 0-240.941 108.062-240.941 240.941s108.062 240.941 240.941 240.941c67.464 0 131.674-28.732 177.272-78.366l0.482 0.361 2.53-3.132 222.75-274.673c34.515-41.743 84.872-65.837 139.083-65.837 99.629 0 180.706 81.077 180.706 180.706s-81.077 180.706-180.706 180.706c-50.959 0-99.388-21.805-133.722-59.573l-57.103-70.776-46.863 37.828 57.103 70.776-0.241 0.181c45.779 51.983 111.736 81.8 180.826 81.8 132.879 0 240.941-108.062 240.941-240.941z" />
<glyph unicode="&#xe987;" glyph-name="info" d="M650.541 100.081v-60.235h-277.082v60.235h108.424v447.608h-105.412v60.235h165.647v-507.844h108.424zM481.16 716.348c51.080 0 92.28 41.321 92.28 92.28 0 51.019-41.261 92.401-92.28 92.401-51.14 0-92.401-41.382-92.401-92.401 0-50.959 41.321-92.28 92.401-92.28z" />
<glyph unicode="&#xe988;" glyph-name="info-alt" d="M512 960c-282.323 0-512-229.677-512-512s229.677-512 512-512 512 229.677 512 512-229.677 512-512 512zM512-3.765c-249.133 0-451.765 202.632-451.765 451.765s202.632 451.765 451.765 451.765 451.765-202.632 451.765-451.765-202.632-451.765-451.765-451.765zM542.118 214.95h58.97v-60.235h-178.176v60.235h58.97v266.24h-56.983v60.235h117.218v-326.475zM432.791 659.667c0 32.828 26.564 59.392 59.392 59.392s59.332-26.564 59.332-59.392c0-32.708-26.504-59.272-59.332-59.272s-59.392 26.564-59.392 59.272z" />
<glyph unicode="&#xe989;" glyph-name="ink-pen" d="M180.706 960v-391.469l329.246-572.175 333.342 572.115v391.529h-662.588zM510.253 116.706h0.12l-0.060-0.12-0.060 0.12zM512 598.588c-33.25 0-60.235 27.046-60.235 60.235s26.985 60.235 60.235 60.235 60.235-27.046 60.235-60.235-26.985-60.235-60.235-60.235zM783.059 584.734l-240.941-413.576v371.471c51.802 13.432 90.353 60.235 90.353 116.194 0 66.44-54.031 120.471-120.471 120.471s-120.471-54.031-120.471-120.471c0-55.959 38.551-102.761 90.353-116.194v-376.712l-240.941 418.756v315.091h542.118v-315.031z" />
<glyph unicode="&#xe98a;" glyph-name="instagram" d="M783.059 960h-542.118c-132.518 0-240.941-108.424-240.941-240.941v-542.118c0-132.518 108.424-240.941 240.941-240.941h542.118c132.518 0 240.941 108.424 240.941 240.941v542.118c0 132.518-108.424 240.941-240.941 240.941zM963.765 176.941c0-99.629-81.077-180.706-180.706-180.706h-542.118c-99.629 0-180.706 81.077-180.706 180.706v361.412h193.175c-17.227-36.744-27.528-77.282-27.528-120.471 0-157.756 128.361-286.118 286.118-286.118s286.118 128.361 286.118 286.118c0 43.189-10.3 83.727-27.528 120.471h193.175v-361.412zM737.882 417.882c0-124.567-101.316-225.882-225.882-225.882s-225.882 101.316-225.882 225.882 101.316 225.882 225.882 225.882 225.882-101.316 225.882-225.882zM731.979 598.588c-52.525 63.789-131.072 105.412-219.979 105.412s-167.454-41.623-219.979-105.412h-231.785v120.471c0 99.629 81.077 180.706 180.706 180.706h542.118c99.629 0 180.706-81.077 180.706-180.706v-120.471h-231.785zM870.641 796.040v-78.185c0-18.010-14.697-32.708-32.648-32.708h-82.402c-18.071 0.060-32.768 14.758-32.768 32.708v78.185c0 18.010 14.697 32.708 32.768 32.708h82.402c17.95 0 32.648-14.697 32.648-32.708z" />
<glyph unicode="&#xe98b;" glyph-name="Italic" d="M716.499 838.686l-342.799-782.216h47.947v-60.235h-180.706v60.235h66.921l342.799 782.216h-48.309v60.235h180.706v-60.235h-66.56z" />
<glyph unicode="&#xe98c;" glyph-name="joomla" d="M601.088 236.514l-94.75-95.352-18.793-18.793c-55.236-54.573-132.397-73.427-202.632-55.838-13.252-57.766-64.693-100.412-126.133-100.412-70.897 0-128.663 57.766-128.663 129.265 0 60.777 42.044 112.279 99.147 125.41-18.191 70.957 0.602 148.781 55.838 203.957l7.529 7.529 94.75-95.413-6.867-6.867c-31.383-30.72-30.72-80.896 0-112.218 30.72-30.78 80.956-30.78 111.676 0l18.854 18.793 94.75 95.413 101.015 100.352 94.75-95.413-100.472-100.412zM495.074 757.308l-95.352-95.292-7.59 7.529c-30.72 30.72-80.956 30.72-111.676 0-30.72-30.78-30.72-81.619 0-112.339l213.956-213.956-94.69-95.352-101.015 100.412-94.75 95.292-18.854 18.793c-57.766 57.103-75.294 139.324-53.368 212.751-57.705 12.529-100.352 63.97-100.352 125.47 0 71.56 57.766 129.265 128.663 129.265 64.632 0 117.338-47.044 127.337-107.942 69.632 16.324 145.589-3.192 200.162-57.043l7.529-7.59zM880.941 672.617c20.721-72.102 2.47-153.058-54.573-210.161l-7.529-7.529-94.75 95.413 7.529 7.469c30.72 30.78 30.72 81.016 0 111.736s-80.956 30.72-111.676 0l-214.618-214.679-95.352 95.413 101.015 100.412 95.352 95.292 18.191 18.854c57.103 57.043 138.662 75.294 211.486 53.911 8.734 62.825 62.705 111.134 128 111.134 70.897 0 128.663-57.766 128.663-129.265-0.060-65.235-48.971-119.206-111.736-128zM865.22-33.882c-62.705 0-114.808 44.514-126.735 103.544-72.764-22.528-156.25-5.060-213.956 52.706l-6.867 7.529 94.75 95.352 7.529-7.469c30.72-30.78 80.956-30.78 111.676 0 30.72 30.72 30.72 80.896 0 111.676l-18.793 18.854-195.825 195.704 95.352 95.413 195.765-195.825 18.251-18.793c54.573-54.573 74.029-131.795 56.44-202.029 62.765-8.794 111.074-62.163 111.074-127.337 0-71.56-57.705-129.325-128.663-129.325z" />
<glyph unicode="&#xe98d;" glyph-name="jsfiddle" d="M993.882 305.423c0-103.063-85.173-186.85-189.621-186.85-3.735 0-7.048 0.482-10.36 0.482h-572.717c-105.412 6.144-191.066 86.618-191.066 191.066 0 70.114 38.129 131.313 95.051 164.683-3.735 12.228-5.662 24.937-5.662 38.611 0 71.981 58.85 130.349 132.216 130.349 30.118 0 58.368-10.36 80.956-27.287 46.14 95.051 144.023 160.949 258.349 160.949 158.6 0 286.6-126.615 286.6-282.383 0-5.662-0.482-11.324-0.482-16.926 68.247-28.25 116.736-95.051 116.736-172.695zM387.795 228.683c46.14 0 79.511 14.577 112.941 46.562-13.673 16.926-28.732 33.431-42.827 50.357-19.275-18.793-40.478-30.6-67.765-30.6-33.431 0-62.103 22.106-62.103 56.922 0 34.334 28.732 56.922 61.199 56.922 103.544 0 125.651-180.706 276.239-180.706 73.427 0 135.529 46.14 135.529 123.302 0 78.125-62.584 123.784-136.915 123.784-46.14 0-80.474-13.192-113.423-45.658 15.059-16.444 29.154-33.852 43.791-50.839 18.793 18.372 39.996 30.118 66.801 30.118 31.081 0 62.103-22.106 62.103-55.055 0-36.262-26.383-59.272-61.621-59.272-100.232 0-127.036 180.706-273.89 180.706-72.945 0-137.397-44.695-137.397-122.338-0.12-79.45 62.464-124.205 137.336-124.205z" />
<glyph unicode="&#xe98e;" glyph-name="key" d="M892.145 580.578l42.586 42.586-104.388 104.388 45.598 45.357-42.466 42.707-490.677-488.328c-29.154 20.239-64.452 32.226-102.581 32.226-99.629 0-180.706-81.077-180.706-180.706s81.077-180.706 180.706-180.706 180.706 81.077 180.706 180.706c0 39.816-13.372 76.378-35.238 106.255l317.079 315.512 104.689-104.689 42.586 42.586-104.629 104.568 42.225 42.044 104.508-104.508zM240.158 58.338c-66.44 0-120.471 54.031-120.471 120.471s54.031 120.471 120.471 120.471 120.471-54.031 120.471-120.471-54.031-120.471-120.471-120.471z" />
<glyph unicode="&#xe98f;" glyph-name="layers1" d="M783.059 899.765h-783.059v-662.588h783.059v662.588zM722.824 297.412h-662.588v542.118h662.588v-542.118zM1024 658.824v-662.588h-783.059v182.573h60.235v-122.338h662.588v542.118h-121.434v60.235h181.67z" />
<glyph unicode="&#xe990;" glyph-name="layers-alt" d="M662.588 899.765h-662.588v-542.118h662.588v542.118zM602.353 417.882h-542.118v421.647h542.118v-421.647zM843.294 176.941h-662.588v119.326h60.235v-59.091h542.118v421.647h-59.874v60.235h120.109v-542.118zM1024 538.353v-542.118h-662.588v119.326h60.235v-59.091h542.118v421.647h-59.874v60.235h120.109z" />
<glyph unicode="&#xe991;" glyph-name="layout" d="M0 960v-1024h1024v1024h-1024zM60.235 598.588h542.118v-602.353h-542.118v602.353zM963.765-3.765h-301.176v602.353h301.176v-602.353zM60.235 658.824v240.941h903.529v-240.941h-903.529z" />
<glyph unicode="&#xe992;" glyph-name="layout-accordion-list" d="M240.941 960v-542.118h783.059v542.118h-783.059zM963.765 478.118h-662.588v421.647h662.588v-421.647zM0 779.294h180.706v180.706h-180.706v-180.706zM60.235 899.765h60.235v-60.235h-60.235v60.235zM240.941 176.941h783.059v180.706h-783.059v-180.706zM301.176 297.412h662.588v-60.235h-662.588v60.235zM0 176.941h180.706v180.706h-180.706v-180.706zM60.235 297.412h60.235v-60.235h-60.235v60.235zM240.941-64h783.059v180.706h-783.059v-180.706zM301.176 56.471h662.588v-60.235h-662.588v60.235zM0-64h180.706v180.706h-180.706v-180.706zM60.235 56.471h60.235v-60.235h-60.235v60.235z" />
<glyph unicode="&#xe993;" glyph-name="layout-accordion-merged" d="M0 960v-1024h1024v1024h-1024zM963.765 899.765v-542.118h-903.529v542.118h903.529zM963.765 297.412v-120.471h-903.529v120.471h903.529zM60.235-3.765v120.471h903.529v-120.471h-903.529z" />
<glyph unicode="&#xe994;" glyph-name="layout-accordion-separated" d="M0 960v-180.706h1024v180.706h-1024zM963.765 839.529h-903.529v60.235h903.529v-60.235zM0 176.941h1024v542.118h-1024v-542.118zM60.235 658.824h903.529v-421.647h-903.529v421.647zM0-64h1024v180.706h-1024v-180.706zM60.235 56.471h903.529v-60.235h-903.529v60.235z" />
<glyph unicode="&#xe995;" glyph-name="layout-column2" d="M0-64h481.882v1024h-481.882v-1024zM60.235 899.765h361.412v-903.529h-361.412v903.529zM542.118 960v-1024h481.882v1024h-481.882zM963.765-3.765h-361.412v903.529h361.412v-903.529z" />
<glyph unicode="&#xe996;" glyph-name="layout-column2-alt" d="M0 960h481.882v-1024h-481.882v1024zM542.118 960v-1024h481.882v1024h-481.882z" />
<glyph unicode="&#xe997;" glyph-name="layout-column3" d="M0-64h301.176v1024h-301.176v-1024zM60.235 899.765h180.706v-903.529h-180.706v903.529zM361.412-64h301.176v1024h-301.176v-1024zM421.647 899.765h180.706v-903.529h-180.706v903.529zM722.824 960v-1024h301.176v1024h-301.176zM963.765-3.765h-180.706v903.529h180.706v-903.529z" />
<glyph unicode="&#xe998;" glyph-name="layout-column3-alt" d="M0 960h301.176v-1024h-301.176v1024zM361.412-64h301.176v1024h-301.176v-1024zM722.824 960v-1024h301.176v1024h-301.176z" />
<glyph unicode="&#xe999;" glyph-name="layout-column4" d="M60.235-64h180.706v1024h-180.706v-1024zM120.471 899.765h60.235v-903.529h-60.235v903.529zM301.176-64h180.706v1024h-180.706v-1024zM361.412 899.765h60.235v-903.529h-60.235v903.529zM542.118-64h180.706v1024h-180.706v-1024zM602.353 899.765h60.235v-903.529h-60.235v903.529zM783.059 960v-1024h180.706v1024h-180.706zM903.529-3.765h-60.235v903.529h60.235v-903.529z" />
<glyph unicode="&#xe99a;" glyph-name="layout-column4-alt" d="M60.235 960h180.706v-1024h-180.706v1024zM301.176-64h180.706v1024h-180.706v-1024zM542.118-64h180.706v1024h-180.706v-1024zM783.059 960v-1024h180.706v1024h-180.706z" />
<glyph unicode="&#xe99b;" glyph-name="layout-cta-btn-left" d="M903.529 538.353h-421.647v60.235h421.647v-60.235zM482.304 417.882h301.176v60.235h-301.176v-60.235zM1024 779.294v-602.353h-1024v602.353h1024zM963.765 719.059h-903.529v-481.882h903.529v481.882zM421.647 598.588h-301.176v-120.471h301.176v120.471z" />
<glyph unicode="&#xe99c;" glyph-name="layout-cta-btn-right" d="M542.118 538.353h-421.647v60.235h421.647v-60.235zM240.52 417.882h301.176v60.235h-301.176v-60.235zM1024 779.294v-602.353h-1024v602.353h1024zM963.765 719.059h-903.529v-481.882h903.529v481.882zM903.529 598.588h-301.176v-120.471h301.176v120.471z" />
<glyph unicode="&#xe99d;" glyph-name="layout-cta-center" d="M843.294 478.118h-662.588v60.235h662.588v-60.235zM1024 779.294v-662.588h-1024v662.588h1024zM963.765 719.059h-903.529v-542.118h903.529v542.118zM382.916 297.412h258.168v120.471h-258.168v-120.471z" />
<glyph unicode="&#xe99e;" glyph-name="layout-cta-left" d="M0 779.294v-662.588h1024v662.588h-1024zM963.765 176.941h-903.529v542.118h903.529v-542.118zM783.059 478.118h-602.353v60.235h602.353v-60.235zM481.882 297.412h-301.176v120.471h301.176v-120.471z" />
<glyph unicode="&#xe99f;" glyph-name="layout-cta-right" d="M0 779.294v-662.588h1024v662.588h-1024zM963.765 176.941h-903.529v542.118h903.529v-542.118zM843.294 478.118h-602.353v60.235h602.353v-60.235zM542.118 417.882h301.176v-120.471h-301.176v120.471z" />
<glyph unicode="&#xe9a0;" glyph-name="layout-grid2" d="M0 538.353h421.647v421.647h-421.647v-421.647zM60.235 899.765h301.176v-301.176h-301.176v301.176zM542.118 960v-421.647h421.647v421.647h-421.647zM903.529 598.588h-301.176v301.176h301.176v-301.176zM0-3.765h421.647v421.647h-421.647v-421.647zM60.235 357.647h301.176v-301.176h-301.176v301.176zM542.118-3.765h421.647v421.647h-421.647v-421.647zM602.353 357.647h301.176v-301.176h-301.176v301.176z" />
<glyph unicode="&#xe9a1;" glyph-name="layout-grid2-alt" d="M0 960h421.647v-421.647h-421.647v421.647zM542.118 960v-421.647h421.647v421.647h-421.647zM0-3.765h421.647v421.647h-421.647v-421.647zM542.118-3.765h421.647v421.647h-421.647v-421.647z" />
<glyph unicode="&#xe9a2;" glyph-name="layout-grid2-thumb" d="M0 839.529h180.706v-180.706h-180.706v180.706zM542.118 658.824h180.706v180.706h-180.706v-180.706zM0 176.941h180.706v180.706h-180.706v-180.706zM542.118 176.941h180.706v180.706h-180.706v-180.706zM240.941 779.294h240.941v60.235h-240.941v-60.235zM240.941 658.824h240.941v60.235h-240.941v-60.235zM783.059 839.529v-60.235h240.941v60.235h-240.941zM783.059 658.824h240.941v60.235h-240.941v-60.235zM421.647 598.648h-180.706v-60.235h180.706v60.235zM963.765 598.648h-180.706v-60.235h180.706v60.235zM240.941 297.412h240.941v60.235h-240.941v-60.235zM240.941 176.941h240.941v60.235h-240.941v-60.235zM783.059 297.412h240.941v60.235h-240.941v-60.235zM783.059 176.941h240.941v60.235h-240.941v-60.235zM240.941 56.531h180.706v60.235h-180.706v-60.235zM783.059 56.531h180.706v60.235h-180.706v-60.235z" />
<glyph unicode="&#xe9a3;" glyph-name="layout-grid3" d="M0 658.824h301.176v301.176h-301.176v-301.176zM60.235 899.765h180.706v-180.706h-180.706v180.706zM361.412 658.824h301.176v301.176h-301.176v-301.176zM421.647 899.765h180.706v-180.706h-180.706v180.706zM722.824 960v-301.176h301.176v301.176h-301.176zM963.765 719.059h-180.706v180.706h180.706v-180.706zM0 297.412h301.176v301.176h-301.176v-301.176zM60.235 538.353h180.706v-180.706h-180.706v180.706zM361.412 297.412h301.176v301.176h-301.176v-301.176zM421.647 538.353h180.706v-180.706h-180.706v180.706zM722.824 297.412h301.176v301.176h-301.176v-301.176zM783.059 538.353h180.706v-180.706h-180.706v180.706zM0-64h301.176v301.176h-301.176v-301.176zM60.235 176.941h180.706v-180.706h-180.706v180.706zM361.412-64h301.176v301.176h-301.176v-301.176zM421.647 176.941h180.706v-180.706h-180.706v180.706zM722.824-64h301.176v301.176h-301.176v-301.176zM783.059 176.941h180.706v-180.706h-180.706v180.706z" />
<glyph unicode="&#xe9a4;" glyph-name="layout-grid3-alt" d="M0 960h301.176v-301.176h-301.176v301.176zM361.412 658.824h301.176v301.176h-301.176v-301.176zM722.824 960v-301.176h301.176v301.176h-301.176zM0 297.412h301.176v301.176h-301.176v-301.176zM361.412 297.412h301.176v301.176h-301.176v-301.176zM722.824 297.412h301.176v301.176h-301.176v-301.176zM0-64h301.176v301.176h-301.176v-301.176zM361.412-64h301.176v301.176h-301.176v-301.176zM722.824-64h301.176v301.176h-301.176v-301.176z" />
</font>
</defs>
</svg>
